{
.appVersion = "895";
copyright = "Copyright 2016 Google Inc. All Rights Reserved.";
customParameters = (
{
name = description;
value = "Data unhinted. Designed by Monotype design team.";
},
{
name = license;
value = "This Font Software is licensed under the SIL Open Font License, Version 1.1. This Font Software is distributed on an \"AS IS\" BASIS, WITHOUT WARRANTIES OR CONDITIONS OF ANY KIND, either express or implied. See the SIL Open Font License for the specific language, permissions and limitations governing your use of this Font Software.";
},
{
name = licenseURL;
value = "http://scripts.sil.org/OFL";
},
{
name = vendorID;
value = GOOG;
},
{
name = panose;
value = (
2,
11,
5,
2,
4,
5,
4,
2,
2,
4
);
},
{
name = codePageRanges;
value = (
1252
);
},
{
name = glyphOrder;
value = (
.notdef,
null,
uni000D,
space,
uniAAE0,
uniAAE1,
uniAAE2,
uniAAE3,
uniAAE4,
uniAAE5,
uniAAE6,
uniAAE7,
uniAAE8,
uniAAE9,
uniAAEA,
uniAAEB,
uniAAEC,
uniAAED,
uniAAEE,
uniAAEF,
uniAAF0,
uniAAF1,
uniAAF2,
uniAAF3,
uniAAF4,
uniAAF5,
uniAAF6,
uniABC0,
uniABC1,
uniABC2,
uniABC3,
uniABC4,
uniABC5,
uniABC6,
uniABC7,
uniABC8,
uniABC9,
uniABCA,
uniABCB,
uniABCC,
uniABCD,
uniABCE,
uniABCF,
uniABD0,
uniABD1,
uniABD2,
uniABD3,
uniABD4,
uniABD5,
uniABD6,
uniABD7,
uniABD8,
uniABD9,
uniABDA,
uniABDB,
uniABDC,
uniABDD,
uniABDE,
uniABDF,
uniABE0,
uniABE1,
uniABE2,
uniABE3,
uniABE4,
uniABE5,
uniABE6,
uniABE7,
uniABE8,
uniABE9,
uniABEA,
uniABEB,
uniABEC,
uniABED,
uniABF0,
uniABF1,
uniABF2,
uniABF3,
uniABF4,
uniABF5,
uniABF6,
uniABF7,
uniABF8,
uniABF9,
uniABED.alt1,
uniABED.alt2,
uniABED.alt3,
uniABED.alt4,
uniABED.alt5,
uniABED.alt6,
uniABED.alt7,
uniABED.alt8
);
}
);
date = "2016-11-10 14:25:54 +0000";
designer = "Monotype Design Team";
designerURL = "http://www.monotype.com/studio";
familyName = "Noto Sans Meetei Mayek";
features = (
{

glyphs = (
{
glyphname = .notdef;
lastChange = "2016-11-10 14:25:40 +0000";
layers = (
{
layerId = "EB118A11-D526-4C4A-9BF6-2DF904995F6F";
paths = (
{
closed = 1;
nodes = (
"1034 0 LINE",
"1034 1462 LINE",
"193 1462 LINE",
"193 0 LINE"
);
},
{
closed = 1;
nodes = (
"297 1358 LINE",
"930 1358 LINE",
"930 104 LINE",
"297 104 LINE"
);
}
);
width = 1229;
}
);
note = .notdef;
},
{
glyphname = uniAAE0;
lastChange = "2016-11-10 14:25:36 +0000";
layers = (
{
layerId = "EB118A11-D526-4C4A-9BF6-2DF904995F6F";
paths = (
{
closed = 1;
nodes = (
"526 -4 OFFCURVE",
"609 10 OFFCURVE",
"705 37 CURVE SMOOTH",
"806 64 OFFCURVE",
"891 78 OFFCURVE",
"961 78 CURVE SMOOTH",
"1071 78 OFFCURVE",
"1175 51 OFFCURVE",
"1274 -4 CURVE",
"1274 807 LINE SMOOTH",
"1274 1172 OFFCURVE",
"1086 1368 OFFCURVE",
"739 1368 CURVE SMOOTH",
"495 1368 OFFCURVE",
"323 1263 OFFCURVE",
"223 1053 CURVE",
"369 975 LINE",
"456 1147 OFFCURVE",
"563 1214 OFFCURVE",
"735 1214 CURVE SMOOTH",
"975 1214 OFFCURVE",
"1108 1078 OFFCURVE",
"1108 846 CURVE SMOOTH",
"1108 211 LINE",
"1053 224 OFFCURVE",
"1004 231 OFFCURVE",
"961 231 CURVE SMOOTH",
"903 231 OFFCURVE",
"822 217 OFFCURVE",
"717 188 CURVE SMOOTH",
"610 159 OFFCURVE",
"525 145 OFFCURVE",
"461 145 CURVE SMOOTH",
"340 145 OFFCURVE",
"246 186 OFFCURVE",
"180 268 CURVE",
"80 158 LINE",
"171 50 OFFCURVE",
"296 -4 OFFCURVE",
"455 -4 CURVE SMOOTH"
);
}
);
width = 1397;
}
);
note = uniAAE0;
unicode = AAE0;
},
{
glyphname = uniAAE1;
lastChange = "2016-11-10 14:25:36 +0000";
layers = (
{
layerId = "EB118A11-D526-4C4A-9BF6-2DF904995F6F";
paths = (
{
closed = 1;
nodes = (
"1000 0 OFFCURVE",
"1168 125 OFFCURVE",
"1249 328 CURVE",
"1108 406 LINE",
"1034 238 OFFCURVE",
"912 154 OFFCURVE",
"741 154 CURVE SMOOTH",
"490 154 OFFCURVE",
"365 275 OFFCURVE",
"365 516 CURVE SMOOTH",
"365 1200 LINE",
"1249 1200 LINE",
"1249 1350 LINE",
"66 1350 LINE",
"66 1200 LINE",
"197 1200 LINE",
"197 561 LINE SMOOTH",
"197 198 OFFCURVE",
"380 0 OFFCURVE",
"743 0 CURVE SMOOTH"
);
}
);
width = 1321;
}
);
note = uniAAE1;
unicode = AAE1;
},
{
glyphname = uniAAE2;
lastChange = "2016-11-10 14:25:36 +0000";
layers = (
{
layerId = "EB118A11-D526-4C4A-9BF6-2DF904995F6F";
paths = (
{
closed = 1;
nodes = (
"359 -1 OFFCURVE",
"409 17 OFFCURVE",
"456 47 CURVE SMOOTH",
"550 107 OFFCURVE",
"614 201 OFFCURVE",
"614 330 CURVE SMOOTH",
"614 450 OFFCURVE",
"559 570 OFFCURVE",
"410 745 CURVE SMOOTH",
"301 870 OFFCURVE",
"246 977 OFFCURVE",
"246 1067 CURVE SMOOTH",
"246 1130 OFFCURVE",
"280 1192 OFFCURVE",
"371 1192 CURVE SMOOTH",
"444 1192 OFFCURVE",
"492 1138 OFFCURVE",
"492 1042 CURVE",
"490 1013 OFFCURVE",
"484 983 OFFCURVE",
"475 952 CURVE",
"1165 952 LINE",
"1156 983 OFFCURVE",
"1151 1013 OFFCURVE",
"1151 1042 CURVE SMOOTH",
"1151 1141 OFFCURVE",
"1195 1192 OFFCURVE",
"1270 1192 CURVE SMOOTH",
"1359 1192 OFFCURVE",
"1395 1130 OFFCURVE",
"1395 1067 CURVE SMOOTH",
"1395 977 OFFCURVE",
"1340 870 OFFCURVE",
"1231 745 CURVE SMOOTH",
"1083 576 OFFCURVE",
"1026 453 OFFCURVE",
"1026 330 CURVE SMOOTH",
"1026 265 OFFCURVE",
"1041 210 OFFCURVE",
"1070 163 CURVE SMOOTH",
"1129 69 OFFCURVE",
"1232 5 OFFCURVE",
"1333 -8 CURVE",
"1376 154 LINE",
"1289 165 OFFCURVE",
"1192 237 OFFCURVE",
"1192 330 CURVE SMOOTH",
"1192 442 OFFCURVE",
"1248 526 OFFCURVE",
"1343 641 CURVE SMOOTH",
"1424 745 OFFCURVE",
"1474 815 OFFCURVE",
"1495 851 CURVE SMOOTH",
"1536 923 OFFCURVE",
"1559 991 OFFCURVE",
"1559 1067 CURVE SMOOTH",
"1559 1236 OFFCURVE",
"1443 1348 OFFCURVE",
"1268 1348 CURVE SMOOTH",
"1112 1348 OFFCURVE",
"997 1237 OFFCURVE",
"997 1106 CURVE SMOOTH",
"997 1096 LINE",
"643 1096 LINE",
"643 1243 OFFCURVE",
"534 1348 OFFCURVE",
"373 1348 CURVE SMOOTH",
"196 1348 OFFCURVE",
"82 1236 OFFCURVE",
"82 1067 CURVE SMOOTH",
"82 988 OFFCURVE",
"107 919 OFFCURVE",
"147 848 CURVE SMOOTH",
"166 813 OFFCURVE",
"216 744 OFFCURVE",
"297 641 CURVE SMOOTH",
"393 526 OFFCURVE",
"449 442 OFFCURVE",
"449 330 CURVE SMOOTH",
"449 237 OFFCURVE",
"352 165 OFFCURVE",
"264 154 CURVE",
"307 -8 LINE"
);
}
);
width = 1642;
}
);
note = uniAAE2;
unicode = AAE2;
},
{
glyphname = uniAAE3;
lastChange = "2016-11-10 14:25:36 +0000";
layers = (
{
layerId = "EB118A11-D526-4C4A-9BF6-2DF904995F6F";
paths = (
{
closed = 1;
nodes = (
"221 0 LINE",
"221 154 OFFCURVE",
"279 231 OFFCURVE",
"395 231 CURVE SMOOTH",
"530 231 OFFCURVE",
"582 131 OFFCURVE",
"582 0 CURVE",
"748 0 LINE",
"748 12 LINE",
"897 1028 LINE",
"956 969 OFFCURVE",
"1031 940 OFFCURVE",
"1124 940 CURVE SMOOTH",
"1340 940 OFFCURVE",
"1470 1087 OFFCURVE",
"1470 1350 CURVE",
"1305 1350 LINE",
"1305 1169 OFFCURVE",
"1244 1079 OFFCURVE",
"1122 1079 CURVE SMOOTH",
"1005 1079 OFFCURVE",
"946 1146 OFFCURVE",
"946 1280 CURVE",
"950 1350 LINE",
"786 1350 LINE",
"623 266 LINE",
"575 340 OFFCURVE",
"499 377 OFFCURVE",
"395 377 CURVE SMOOTH",
"191 377 OFFCURVE",
"70 227 OFFCURVE",
"70 0 CURVE"
);
}
);
width = 1538;
}
);
note = uniAAE3;
unicode = AAE3;
},
{
glyphname = uniAAE4;
lastChange = "2016-11-10 14:25:36 +0000";
layers = (
{
layerId = "EB118A11-D526-4C4A-9BF6-2DF904995F6F";
paths = (
{
closed = 1;
nodes = (
"645 -8 OFFCURVE",
"791 116 OFFCURVE",
"791 324 CURVE SMOOTH",
"791 473 OFFCURVE",
"702 631 OFFCURVE",
"522 883 CURVE",
"563 936 LINE SMOOTH",
"636 1037 OFFCURVE",
"694 1105 OFFCURVE",
"739 1141 CURVE SMOOTH",
"783 1176 OFFCURVE",
"824 1194 OFFCURVE",
"862 1194 CURVE SMOOTH",
"902 1194 OFFCURVE",
"946 1174 OFFCURVE",
"993 1134 CURVE SMOOTH",
"1040 1093 OFFCURVE",
"1108 1010 OFFCURVE",
"1198 883 CURVE",
"993 602 OFFCURVE",
"928 462 OFFCURVE",
"928 326 CURVE SMOOTH",
"928 126 OFFCURVE",
"1081 -6 OFFCURVE",
"1298 -6 CURVE SMOOTH",
"1522 -6 OFFCURVE",
"1665 123 OFFCURVE",
"1665 326 CURVE SMOOTH",
"1665 473 OFFCURVE",
"1583 632 OFFCURVE",
"1395 887 CURVE",
"1407 897 LINE",
"1442 948 LINE SMOOTH",
"1553 1117 OFFCURVE",
"1651 1202 OFFCURVE",
"1737 1202 CURVE SMOOTH",
"1865 1202 OFFCURVE",
"1913 1129 OFFCURVE",
"1913 946 CURVE SMOOTH",
"1913 0 LINE",
"2087 0 LINE",
"2087 954 LINE SMOOTH",
"2087 1230 OFFCURVE",
"1981 1358 OFFCURVE",
"1749 1358 CURVE SMOOTH",
"1650 1358 OFFCURVE",
"1566 1315 OFFCURVE",
"1486 1240 CURVE SMOOTH",
"1445 1203 OFFCURVE",
"1382 1129 OFFCURVE",
"1296 1018 CURVE",
"1217 1122 OFFCURVE",
"1158 1193 OFFCURVE",
"1118 1231 CURVE SMOOTH",
"1037 1307 OFFCURVE",
"957 1350 OFFCURVE",
"864 1350 CURVE SMOOTH",
"796 1350 OFFCURVE",
"728 1324 OFFCURVE",
"661 1273 CURVE SMOOTH",
"525 1170 OFFCURVE",
"208 738 OFFCURVE",
"121 561 CURVE SMOOTH",
"77 472 OFFCURVE",
"55 393 OFFCURVE",
"55 324 CURVE SMOOTH",
"55 124 OFFCURVE",
"208 -8 OFFCURVE",
"424 -8 CURVE SMOOTH"
);
},
{
closed = 1;
nodes = (
"310 143 OFFCURVE",
"225 211 OFFCURVE",
"225 350 CURVE SMOOTH",
"225 454 OFFCURVE",
"300 581 OFFCURVE",
"420 748 CURVE",
"554 569 OFFCURVE",
"621 437 OFFCURVE",
"621 354 CURVE SMOOTH",
"621 210 OFFCURVE",
"537 143 OFFCURVE",
"422 143 CURVE SMOOTH"
);
},
{
closed = 1;
nodes = (
"1181 145 OFFCURVE",
"1100 213 OFFCURVE",
"1100 352 CURVE SMOOTH",
"1100 456 OFFCURVE",
"1174 583 OFFCURVE",
"1294 750 CURVE",
"1427 572 OFFCURVE",
"1493 441 OFFCURVE",
"1493 356 CURVE SMOOTH",
"1493 212 OFFCURVE",
"1411 145 OFFCURVE",
"1296 145 CURVE SMOOTH"
);
}
);
width = 2175;
}
);
note = uniAAE4;
unicode = AAE4;
},
{
glyphname = uniAAE5;
lastChange = "2016-11-10 14:25:36 +0000";
layers = (
{
layerId = "EB118A11-D526-4C4A-9BF6-2DF904995F6F";
paths = (
{
closed = 1;
nodes = (
"1186 0 LINE",
"1186 891 LINE",
"768 891 LINE",
"768 1198 LINE",
"1309 1198 LINE",
"1309 1350 LINE",
"80 1350 LINE",
"80 1198 LINE",
"602 1198 LINE",
"602 891 LINE",
"182 891 LINE",
"182 0 LINE"
);
},
{
closed = 1;
nodes = (
"354 739 LINE",
"602 739 LINE",
"602 143 LINE",
"354 143 LINE"
);
},
{
closed = 1;
nodes = (
"768 739 LINE",
"1016 739 LINE",
"1016 143 LINE",
"768 143 LINE"
);
}
);
width = 1397;
}
);
note = uniAAE5;
unicode = AAE5;
},
{
glyphname = uniAAE6;
lastChange = "2016-11-10 14:25:36 +0000";
layers = (
{
layerId = "EB118A11-D526-4C4A-9BF6-2DF904995F6F";
paths = (
{
closed = 1;
nodes = (
"649 154 LINE",
"388 159 OFFCURVE",
"248 285 OFFCURVE",
"248 578 CURVE SMOOTH",
"248 826 OFFCURVE",
"333 950 OFFCURVE",
"504 950 CURVE SMOOTH",
"573 950 OFFCURVE",
"626 935 OFFCURVE",
"661 906 CURVE SMOOTH",
"731 847 OFFCURVE",
"769 727 OFFCURVE",
"772 516 CURVE",
"940 516 LINE",
"940 619 OFFCURVE",
"950 702 OFFCURVE",
"971 767 CURVE SMOOTH",
"1011 896 OFFCURVE",
"1077 952 OFFCURVE",
"1225 952 CURVE SMOOTH",
"1382 952 OFFCURVE",
"1460 828 OFFCURVE",
"1460 580 CURVE SMOOTH",
"1460 308 OFFCURVE",
"1326 166 OFFCURVE",
"1059 154 CURVE",
"1059 -2 LINE",
"1427 9 OFFCURVE",
"1628 213 OFFCURVE",
"1628 580 CURVE SMOOTH",
"1628 928 OFFCURVE",
"1492 1102 OFFCURVE",
"1221 1102 CURVE",
"1172 1263 OFFCURVE",
"1032 1356 OFFCURVE",
"852 1356 CURVE SMOOTH",
"677 1356 OFFCURVE",
"537 1258 OFFCURVE",
"492 1102 CURVE",
"221 1094 OFFCURVE",
"70 902 OFFCURVE",
"70 578 CURVE SMOOTH",
"70 214 OFFCURVE",
"281 3 OFFCURVE",
"649 -2 CURVE"
);
},
{
closed = 1;
nodes = (
"825 954 OFFCURVE",
"754 1041 OFFCURVE",
"643 1079 CURVE",
"671 1172 OFFCURVE",
"750 1223 OFFCURVE",
"854 1223 CURVE SMOOTH",
"966 1223 OFFCURVE",
"1044 1162 OFFCURVE",
"1071 1077 CURVE",
"962 1034 OFFCURVE",
"890 947 OFFCURVE",
"856 817 CURVE"
);
}
);
width = 1726;
}
);
note = uniAAE6;
unicode = AAE6;
},
{
glyphname = uniAAE7;
lastChange = "2016-11-10 14:25:36 +0000";
layers = (
{
layerId = "EB118A11-D526-4C4A-9BF6-2DF904995F6F";
paths = (
{
closed = 1;
nodes = (
"1126 -6 OFFCURVE",
"1272 118 OFFCURVE",
"1272 326 CURVE SMOOTH",
"1272 393 OFFCURVE",
"1254 466 OFFCURVE",
"1217 545 CURVE SMOOTH",
"1180 624 OFFCURVE",
"1109 737 OFFCURVE",
"1004 883 CURVE",
"1088 992 OFFCURVE",
"1146 1062 OFFCURVE",
"1177 1093 CURVE SMOOTH",
"1239 1154 OFFCURVE",
"1294 1194 OFFCURVE",
"1346 1194 CURVE SMOOTH",
"1469 1194 OFFCURVE",
"1520 1123 OFFCURVE",
"1520 954 CURVE SMOOTH",
"1520 0 LINE",
"1694 0 LINE",
"1694 963 LINE SMOOTH",
"1694 1221 OFFCURVE",
"1582 1350 OFFCURVE",
"1358 1350 CURVE SMOOTH",
"1213 1350 OFFCURVE",
"1103 1279 OFFCURVE",
"903 1018 CURVE",
"720 1271 OFFCURVE",
"600 1350 OFFCURVE",
"451 1350 CURVE SMOOTH",
"226 1350 OFFCURVE",
"113 1221 OFFCURVE",
"113 963 CURVE SMOOTH",
"113 0 LINE",
"289 0 LINE",
"289 954 LINE SMOOTH",
"289 1123 OFFCURVE",
"338 1194 OFFCURVE",
"463 1194 CURVE SMOOTH",
"498 1194 OFFCURVE",
"540 1174 OFFCURVE",
"587 1135 CURVE SMOOTH",
"634 1095 OFFCURVE",
"706 1011 OFFCURVE",
"805 883 CURVE",
"692 724 OFFCURVE",
"619 608 OFFCURVE",
"586 535 CURVE SMOOTH",
"553 461 OFFCURVE",
"537 391 OFFCURVE",
"537 326 CURVE SMOOTH",
"537 126 OFFCURVE",
"689 -6 OFFCURVE",
"905 -6 CURVE SMOOTH"
);
},
{
closed = 1;
nodes = (
"791 145 OFFCURVE",
"707 213 OFFCURVE",
"707 352 CURVE SMOOTH",
"707 459 OFFCURVE",
"780 583 OFFCURVE",
"903 752 CURVE",
"1036 575 OFFCURVE",
"1102 443 OFFCURVE",
"1102 356 CURVE SMOOTH",
"1102 212 OFFCURVE",
"1018 145 OFFCURVE",
"903 145 CURVE SMOOTH"
);
}
);
width = 1825;
}
);
note = uniAAE7;
unicode = AAE7;
},
{
glyphname = uniAAE8;
lastChange = "2016-11-10 14:25:36 +0000";
layers = (
{
layerId = "EB118A11-D526-4C4A-9BF6-2DF904995F6F";
paths = (
{
closed = 1;
nodes = (
"369 0 LINE",
"369 1202 LINE",
"1260 1202 LINE",
"1260 1350 LINE",
"76 1350 LINE",
"76 1200 LINE",
"203 1200 LINE",
"203 0 LINE"
);
},
{
closed = 1;
nodes = (
"1169 733 LINE SMOOTH",
"1174 762 OFFCURVE",
"1177 787 OFFCURVE",
"1177 811 CURVE SMOOTH",
"1177 902 OFFCURVE",
"1141 958 OFFCURVE",
"1090 993 CURVE SMOOTH",
"1038 1028 OFFCURVE",
"972 1040 OFFCURVE",
"911 1040 CURVE SMOOTH",
"489 1040 LINE",
"489 897 LINE",
"881 897 LINE SMOOTH",
"969 897 OFFCURVE",
"1017 867 OFFCURVE",
"1017 786 CURVE SMOOTH",
"1017 771 OFFCURVE",
"1015 756 OFFCURVE",
"1012 737 CURVE SMOOTH",
"879 16 LINE",
"1028 -14 LINE"
);
}
);
width = 1331;
}
);
note = uniAAE8;
unicode = AAE8;
},
{
glyphname = uniAAE9;
lastChange = "2016-11-10 14:25:36 +0000";
layers = (
{
layerId = "EB118A11-D526-4C4A-9BF6-2DF904995F6F";
paths = (
{
closed = 1;
nodes = (
"952 -18 OFFCURVE",
"1114 128 OFFCURVE",
"1114 360 CURVE SMOOTH",
"1114 497 OFFCURVE",
"1048 612 OFFCURVE",
"813 829 CURVE",
"947 948 OFFCURVE",
"1079 1052 OFFCURVE",
"1210 1141 CURVE",
"1336 1055 OFFCURVE",
"1467 952 OFFCURVE",
"1604 831 CURVE",
"1482 714 OFFCURVE",
"1402 622 OFFCURVE",
"1363 555 CURVE SMOOTH",
"1324 488 OFFCURVE",
"1305 423 OFFCURVE",
"1305 360 CURVE SMOOTH",
"1305 131 OFFCURVE",
"1464 -18 OFFCURVE",
"1712 -18 CURVE SMOOTH",
"1955 -18 OFFCURVE",
"2118 128 OFFCURVE",
"2118 360 CURVE SMOOTH",
"2118 497 OFFCURVE",
"2052 612 OFFCURVE",
"1817 829 CURVE",
"1980 977 OFFCURVE",
"2220 1145 OFFCURVE",
"2320 1200 CURVE",
"2320 1350 LINE",
"96 1350 LINE",
"96 1200 LINE",
"213 1135 OFFCURVE",
"441 971 OFFCURVE",
"600 831 CURVE",
"479 714 OFFCURVE",
"399 622 OFFCURVE",
"360 555 CURVE SMOOTH",
"321 488 OFFCURVE",
"301 423 OFFCURVE",
"301 360 CURVE SMOOTH",
"301 131 OFFCURVE",
"460 -18 OFFCURVE",
"709 -18 CURVE SMOOTH"
);
},
{
closed = 1;
nodes = (
"572 127 OFFCURVE",
"479 222 OFFCURVE",
"479 367 CURVE SMOOTH",
"479 488 OFFCURVE",
"556 604 OFFCURVE",
"709 715 CURVE",
"860 593 OFFCURVE",
"936 477 OFFCURVE",
"936 367 CURVE SMOOTH",
"936 227 OFFCURVE",
"842 127 OFFCURVE",
"709 127 CURVE SMOOTH"
);
},
{
closed = 1;
nodes = (
"586 1027 OFFCURVE",
"469 1118 OFFCURVE",
"360 1200 CURVE",
"1069 1200 LINE",
"931 1109 OFFCURVE",
"811 1018 OFFCURVE",
"709 928 CURVE"
);
},
{
closed = 1;
nodes = (
"1576 127 OFFCURVE",
"1483 222 OFFCURVE",
"1483 367 CURVE SMOOTH",
"1483 488 OFFCURVE",
"1559 604 OFFCURVE",
"1712 715 CURVE",
"1863 593 OFFCURVE",
"1939 477 OFFCURVE",
"1939 367 CURVE SMOOTH",
"1939 227 OFFCURVE",
"1845 127 OFFCURVE",
"1712 127 CURVE SMOOTH"
);
},
{
closed = 1;
nodes = (
"1589 1027 OFFCURVE",
"1473 1118 OFFCURVE",
"1364 1200 CURVE",
"2073 1200 LINE",
"1935 1109 OFFCURVE",
"1815 1018 OFFCURVE",
"1712 928 CURVE"
);
}
);
width = 2408;
}
);
note = uniAAE9;
unicode = AAE9;
},
{
glyphname = uniAAEA;
lastChange = "2016-11-10 14:25:36 +0000";
layers = (
{
layerId = "EB118A11-D526-4C4A-9BF6-2DF904995F6F";
paths = (
{
closed = 1;
nodes = (
"1167 0 LINE",
"1167 791 LINE SMOOTH",
"1167 1146 OFFCURVE",
"962 1360 OFFCURVE",
"621 1360 CURVE SMOOTH",
"290 1360 OFFCURVE",
"80 1143 OFFCURVE",
"80 791 CURVE SMOOTH",
"80 0 LINE"
);
},
{
closed = 1;
nodes = (
"250 578 LINE",
"999 578 LINE",
"999 145 LINE",
"250 145 LINE"
);
},
{
closed = 1;
nodes = (
"250 817 LINE SMOOTH",
"250 1062 OFFCURVE",
"384 1204 OFFCURVE",
"623 1204 CURVE SMOOTH",
"863 1204 OFFCURVE",
"999 1066 OFFCURVE",
"999 817 CURVE SMOOTH",
"999 723 LINE",
"250 723 LINE"
);
}
);
width = 1266;
}
);
note = uniAAEA;
unicode = AAEA;
},
{
glyphname = uniAAEB;
lastChange = "2016-11-10 14:25:36 +0000";
layers = (
{
layerId = "EB118A11-D526-4C4A-9BF6-2DF904995F6F";
paths = (
{
closed = 1;
nodes = (
"584 -4 LINE",
"584 1196 LINE",
"778 1196 LINE",
"778 1354 LINE",
"584 1354 LINE",
"584 1460 LINE SMOOTH",
"584 1641 OFFCURVE",
"491 1731 OFFCURVE",
"305 1731 CURVE SMOOTH",
"144 1731 OFFCURVE",
"39 1627 OFFCURVE",
"39 1475 CURVE SMOOTH",
"39 1296 OFFCURVE",
"163 1203 OFFCURVE",
"410 1196 CURVE",
"410 -4 LINE"
);
},
{
closed = 1;
nodes = (
"286 1354 OFFCURVE",
"211 1376 OFFCURVE",
"211 1477 CURVE SMOOTH",
"211 1549 OFFCURVE",
"244 1585 OFFCURVE",
"309 1585 CURVE SMOOTH",
"377 1585 OFFCURVE",
"410 1556 OFFCURVE",
"410 1460 CURVE SMOOTH",
"410 1354 LINE"
);
}
);
width = 831;
}
);
note = uniAAEB;
unicode = AAEB;
},
{
glyphname = uniAAEC;
lastChange = "2016-11-10 14:25:36 +0000";
layers = (
{
layerId = "EB118A11-D526-4C4A-9BF6-2DF904995F6F";
paths = (
{
closed = 1;
nodes = (
"-550 -412 OFFCURVE",
"-498 -385 OFFCURVE",
"-467 -332 CURVE",
"-436 -385 OFFCURVE",
"-386 -412 OFFCURVE",
"-319 -412 CURVE SMOOTH",
"-191 -412 OFFCURVE",
"-127 -344 OFFCURVE",
"-127 -209 CURVE SMOOTH",
"-127 -162 OFFCURVE",
"-130 -134 OFFCURVE",
"-135 -123 CURVE",
"-248 -123 LINE",
"-242 -203 LINE",
"-242 -268 OFFCURVE",
"-263 -299 OFFCURVE",
"-326 -299 CURVE SMOOTH",
"-369 -299 OFFCURVE",
"-408 -269 OFFCURVE",
"-408 -217 CURVE SMOOTH",
"-408 -123 LINE",
"-526 -123 LINE",
"-526 -217 LINE SMOOTH",
"-526 -274 OFFCURVE",
"-571 -299 OFFCURVE",
"-614 -299 CURVE SMOOTH",
"-669 -299 OFFCURVE",
"-696 -267 OFFCURVE",
"-696 -203 CURVE",
"-690 -123 LINE",
"-803 -123 LINE",
"-811 -209 LINE",
"-811 -344 OFFCURVE",
"-748 -412 OFFCURVE",
"-621 -412 CURVE SMOOTH"
);
}
);
width = 0;
}
);
note = uniAAEC;
unicode = AAEC;
},
{
glyphname = uniAAED;
lastChange = "2016-11-10 14:25:36 +0000";
layers = (
{
layerId = "EB118A11-D526-4C4A-9BF6-2DF904995F6F";
paths = (
{
closed = 1;
nodes = (
"-613 1454 OFFCURVE",
"-528 1533 OFFCURVE",
"-528 1653 CURVE SMOOTH",
"-528 1797 OFFCURVE",
"-681 1973 OFFCURVE",
"-948 2132 CURVE",
"-1020 2019 LINE",
"-979 1993 OFFCURVE",
"-940 1969 OFFCURVE",
"-903 1946 CURVE SMOOTH",
"-866 1923 OFFCURVE",
"-836 1898 OFFCURVE",
"-813 1872 CURVE",
"-898 1812 OFFCURVE",
"-950 1753 OFFCURVE",
"-950 1657 CURVE SMOOTH",
"-950 1534 OFFCURVE",
"-870 1454 OFFCURVE",
"-741 1454 CURVE SMOOTH"
);
},
{
closed = 1;
nodes = (
"-789 1573 OFFCURVE",
"-821 1602 OFFCURVE",
"-821 1657 CURVE SMOOTH",
"-821 1708 OFFCURVE",
"-789 1754 OFFCURVE",
"-725 1796 CURVE",
"-686 1762 OFFCURVE",
"-666 1718 OFFCURVE",
"-666 1663 CURVE SMOOTH",
"-666 1600 OFFCURVE",
"-710 1573 OFFCURVE",
"-745 1573 CURVE SMOOTH"
);
}
);
width = 0;
}
);
note = uniAAED;
unicode = AAED;
},
{
glyphname = uniAAEE;
lastChange = "2016-11-10 14:25:36 +0000";
layers = (
{
layerId = "EB118A11-D526-4C4A-9BF6-2DF904995F6F";
paths = (
{
closed = 1;
nodes = (
"584 -4 LINE",
"584 926 LINE",
"739 926 LINE",
"739 1083 LINE",
"584 1083 LINE",
"584 1460 LINE SMOOTH",
"584 1641 OFFCURVE",
"491 1731 OFFCURVE",
"305 1731 CURVE SMOOTH",
"144 1731 OFFCURVE",
"39 1627 OFFCURVE",
"39 1475 CURVE SMOOTH",
"39 1296 OFFCURVE",
"163 1196 OFFCURVE",
"387 1196 CURVE SMOOTH",
"410 1196 LINE",
"410 -4 LINE"
);
},
{
closed = 1;
nodes = (
"264 1352 OFFCURVE",
"211 1394 OFFCURVE",
"211 1477 CURVE SMOOTH",
"211 1549 OFFCURVE",
"244 1585 OFFCURVE",
"309 1585 CURVE SMOOTH",
"377 1585 OFFCURVE",
"410 1556 OFFCURVE",
"410 1460 CURVE SMOOTH",
"410 1354 LINE",
"391 1352 LINE",
"371 1352 LINE SMOOTH"
);
}
);
width = 831;
}
);
note = uniAAEE;
unicode = AAEE;
},
{
glyphname = uniAAEF;
lastChange = "2016-11-10 14:25:36 +0000";
layers = (
{
layerId = "EB118A11-D526-4C4A-9BF6-2DF904995F6F";
paths = (
{
closed = 1;
nodes = (
"369 -4 LINE",
"369 1196 LINE",
"391 1196 LINE SMOOTH",
"618 1196 OFFCURVE",
"739 1296 OFFCURVE",
"739 1475 CURVE SMOOTH",
"739 1630 OFFCURVE",
"632 1731 OFFCURVE",
"473 1731 CURVE SMOOTH",
"288 1731 OFFCURVE",
"195 1641 OFFCURVE",
"195 1460 CURVE SMOOTH",
"195 1083 LINE",
"39 1083 LINE",
"39 926 LINE",
"195 926 LINE",
"195 -4 LINE"
);
},
{
closed = 1;
nodes = (
"369 1354 LINE",
"369 1460 LINE SMOOTH",
"369 1556 OFFCURVE",
"401 1585 OFFCURVE",
"469 1585 CURVE SMOOTH",
"534 1585 OFFCURVE",
"567 1549 OFFCURVE",
"567 1477 CURVE SMOOTH",
"567 1394 OFFCURVE",
"514 1352 OFFCURVE",
"408 1352 CURVE SMOOTH",
"389 1352 LINE"
);
}
);
width = 807;
}
);
note = uniAAEF;
unicode = AAEF;
},
{
glyphname = uniAAF0;
lastChange = "2016-11-10 14:25:36 +0000";
layers = (
{
layerId = "EB118A11-D526-4C4A-9BF6-2DF904995F6F";
paths = (
{
closed = 1;
nodes = (
"344 -61 LINE",
"344 1409 LINE",
"176 1409 LINE",
"176 -61 LINE"
);
}
);
width = 477;
}
);
note = uniAAF0;
unicode = AAF0;
},
{
glyphname = uniAAF1;
lastChange = "2016-11-10 14:25:36 +0000";
layers = (
{
layerId = "EB118A11-D526-4C4A-9BF6-2DF904995F6F";
paths = (
{
closed = 1;
nodes = (
"906 639 OFFCURVE",
"1099 705 OFFCURVE",
"1243 885 CURVE",
"1137 983 LINE",
"1017 832 OFFCURVE",
"862 780 OFFCURVE",
"657 780 CURVE SMOOTH",
"450 780 OFFCURVE",
"292 848 OFFCURVE",
"184 983 CURVE",
"76 885 LINE",
"220 698 OFFCURVE",
"404 639 OFFCURVE",
"657 639 CURVE SMOOTH"
);
},
{
closed = 1;
nodes = (
"301 321 OFFCURVE",
"456 375 OFFCURVE",
"657 375 CURVE SMOOTH",
"862 375 OFFCURVE",
"1017 323 OFFCURVE",
"1137 170 CURVE",
"1243 270 LINE",
"1099 451 OFFCURVE",
"906 514 OFFCURVE",
"657 514 CURVE SMOOTH",
"401 514 OFFCURVE",
"223 454 OFFCURVE",
"76 270 CURVE",
"184 170 LINE"
);
}
);
width = 1327;
}
);
note = uniAAF1;
unicode = AAF1;
},
{
glyphname = uniAAF2;
lastChange = "2016-11-10 14:25:36 +0000";
layers = (
{
layerId = "EB118A11-D526-4C4A-9BF6-2DF904995F6F";
paths = (
{
closed = 1;
nodes = (
"637 -6 OFFCURVE",
"765 71 OFFCURVE",
"852 225 CURVE",
"727 311 LINE",
"660 192 OFFCURVE",
"574 133 OFFCURVE",
"467 133 CURVE SMOOTH",
"355 133 OFFCURVE",
"262 185 OFFCURVE",
"262 305 CURVE SMOOTH",
"262 350 OFFCURVE",
"285 398 OFFCURVE",
"332 448 CURVE SMOOTH",
"378 497 OFFCURVE",
"473 572 OFFCURVE",
"616 672 CURVE SMOOTH",
"751 763 OFFCURVE",
"819 860 OFFCURVE",
"819 963 CURVE SMOOTH",
"819 1154 OFFCURVE",
"688 1274 OFFCURVE",
"485 1274 CURVE SMOOTH",
"320 1274 OFFCURVE",
"201 1202 OFFCURVE",
"127 1059 CURVE",
"266 989 LINE",
"313 1086 OFFCURVE",
"386 1135 OFFCURVE",
"485 1135 CURVE SMOOTH",
"594 1135 OFFCURVE",
"666 1078 OFFCURVE",
"666 971 CURVE SMOOTH",
"666 922 OFFCURVE",
"645 889 OFFCURVE",
"605 850 CURVE SMOOTH",
"585 831 OFFCURVE",
"525 784 OFFCURVE",
"424 711 CURVE SMOOTH",
"287 611 OFFCURVE",
"200 535 OFFCURVE",
"162 482 CURVE SMOOTH",
"123 429 OFFCURVE",
"104 373 OFFCURVE",
"104 313 CURVE SMOOTH",
"104 120 OFFCURVE",
"248 -6 OFFCURVE",
"469 -6 CURVE SMOOTH"
);
},
{
closed = 1;
nodes = (
"640 1350 OFFCURVE",
"757 1423 OFFCURVE",
"801 1548 CURVE",
"680 1589 LINE",
"643 1503 OFFCURVE",
"576 1460 OFFCURVE",
"479 1460 CURVE SMOOTH",
"386 1460 OFFCURVE",
"320 1504 OFFCURVE",
"279 1593 CURVE",
"158 1548 LINE",
"208 1416 OFFCURVE",
"315 1350 OFFCURVE",
"479 1350 CURVE SMOOTH"
);
},
{
closed = 1;
nodes = (
"524 1573 OFFCURVE",
"561 1610 OFFCURVE",
"561 1657 CURVE SMOOTH",
"561 1704 OFFCURVE",
"524 1741 OFFCURVE",
"477 1741 CURVE SMOOTH",
"430 1741 OFFCURVE",
"393 1704 OFFCURVE",
"393 1657 CURVE SMOOTH",
"393 1610 OFFCURVE",
"430 1573 OFFCURVE",
"477 1573 CURVE SMOOTH"
);
}
);
width = 926;
}
);
note = uniAAF2;
unicode = AAF2;
},
{
glyphname = uniAAF3;
lastChange = "2016-11-10 14:25:36 +0000";
layers = (
{
layerId = "EB118A11-D526-4C4A-9BF6-2DF904995F6F";
paths = (
{
closed = 1;
nodes = (
"682 438 LINE",
"1165 -18 LINE",
"1272 100 LINE",
"1043 301 OFFCURVE",
"881 446 OFFCURVE",
"788 535 CURVE",
"1012 718 OFFCURVE",
"1090 838 OFFCURVE",
"1090 981 CURVE SMOOTH",
"1090 1210 OFFCURVE",
"931 1350 OFFCURVE",
"678 1350 CURVE SMOOTH",
"433 1350 OFFCURVE",
"274 1213 OFFCURVE",
"274 981 CURVE SMOOTH",
"274 836 OFFCURVE",
"346 719 OFFCURVE",
"573 532 CURVE",
"498 464 OFFCURVE",
"338 320 OFFCURVE",
"92 100 CURVE",
"199 -18 LINE"
);
},
{
closed = 1;
nodes = (
"510 774 OFFCURVE",
"453 858 OFFCURVE",
"453 975 CURVE SMOOTH",
"453 1116 OFFCURVE",
"543 1204 OFFCURVE",
"682 1204 CURVE SMOOTH",
"821 1204 OFFCURVE",
"911 1116 OFFCURVE",
"911 975 CURVE SMOOTH",
"911 858 OFFCURVE",
"851 766 OFFCURVE",
"682 635 CURVE"
);
}
);
width = 1358;
}
);
note = uniAAF3;
unicode = AAF3;
},
{
glyphname = uniAAF4;
lastChange = "2016-11-10 14:25:36 +0000";
layers = (
{
layerId = "EB118A11-D526-4C4A-9BF6-2DF904995F6F";
paths = (
{
closed = 1;
nodes = (
"690 82 LINE",
"479 315 LINE",
"285 537 LINE",
"460 692 OFFCURVE",
"547 814 OFFCURVE",
"547 981 CURVE SMOOTH",
"547 1213 OFFCURVE",
"391 1350 OFFCURVE",
"154 1350 CURVE",
"80 1346 LINE",
"98 1190 LINE",
"119 1192 LINE",
"139 1192 LINE SMOOTH",
"276 1192 OFFCURVE",
"373 1117 OFFCURVE",
"373 965 CURVE SMOOTH",
"373 836 OFFCURVE",
"295 734 OFFCURVE",
"84 551 CURVE",
"349 238 OFFCURVE",
"511 49 OFFCURVE",
"571 -18 CURVE"
);
}
);
width = 772;
}
);
note = uniAAF4;
unicode = AAF4;
},
{
glyphname = uniAAF5;
lastChange = "2016-11-10 14:25:36 +0000";
layers = (
{
layerId = "EB118A11-D526-4C4A-9BF6-2DF904995F6F";
paths = (
{
closed = 1;
nodes = (
"395 0 LINE",
"395 241 LINE",
"482 264 OFFCURVE",
"594 340 OFFCURVE",
"594 481 CURVE SMOOTH",
"594 626 OFFCURVE",
"472 741 OFFCURVE",
"311 741 CURVE SMOOTH",
"162 741 OFFCURVE",
"41 629 OFFCURVE",
"41 481 CURVE SMOOTH",
"41 340 OFFCURVE",
"146 265 OFFCURVE",
"227 242 CURVE",
"227 0 LINE"
);
},
{
closed = 1;
nodes = (
"243 362 OFFCURVE",
"190 414 OFFCURVE",
"190 487 CURVE SMOOTH",
"190 559 OFFCURVE",
"243 612 OFFCURVE",
"311 612 CURVE SMOOTH",
"386 612 OFFCURVE",
"438 559 OFFCURVE",
"438 487 CURVE SMOOTH",
"438 414 OFFCURVE",
"386 362 OFFCURVE",
"311 362 CURVE SMOOTH"
);
}
);
width = 645;
}
);
note = uniAAF5;
unicode = AAF5;
},
{
glyphname = uniAAF6;
lastChange = "2016-11-10 14:25:36 +0000";
layers = (
{
layerId = "EB118A11-D526-4C4A-9BF6-2DF904995F6F";
paths = (
{
closed = 1;
nodes = (
"-948 -651 LINE",
"-948 -481 LINE",
"-784 -481 LINE",
"-784 -352 LINE",
"-948 -352 LINE",
"-948 -184 LINE",
"-1085 -184 LINE",
"-1085 -352 LINE",
"-1251 -352 LINE",
"-1251 -481 LINE",
"-1085 -481 LINE",
"-1085 -651 LINE"
);
}
);
width = 0;
}
);
note = uniAAF6;
unicode = AAF6;
},
{
glyphname = uniABC0;
lastChange = "2016-11-10 14:25:36 +0000";
layers = (
{
layerId = "EB118A11-D526-4C4A-9BF6-2DF904995F6F";
paths = (
{
closed = 1;
nodes = (
"1597 0 LINE",
"1597 1198 LINE",
"1675 1198 LINE",
"1675 1350 LINE",
"68 1350 LINE",
"68 1198 LINE",
"135 1198 LINE",
"135 0 LINE"
);
},
{
closed = 1;
nodes = (
"305 152 LINE",
"573 360 LINE",
"573 141 LINE",
"305 141 LINE"
);
},
{
closed = 1;
nodes = (
"305 1198 LINE",
"573 1198 LINE",
"573 535 LINE",
"305 330 LINE"
);
},
{
closed = 1;
nodes = (
"741 489 LINE",
"995 686 LINE",
"995 141 LINE",
"741 141 LINE"
);
},
{
closed = 1;
nodes = (
"741 1198 LINE",
"995 1198 LINE",
"995 856 LINE",
"741 662 LINE"
);
},
{
closed = 1;
nodes = (
"1159 813 LINE",
"1434 1026 LINE",
"1434 141 LINE",
"1159 141 LINE"
);
},
{
closed = 1;
nodes = (
"1159 1198 LINE",
"1434 1198 LINE",
"1434 1188 LINE",
"1159 979 LINE"
);
}
);
width = 1776;
}
);
note = uniABC0;
unicode = ABC0;
},
{
glyphname = uniABC1;
lastChange = "2016-11-10 14:25:36 +0000";
layers = (
{
layerId = "EB118A11-D526-4C4A-9BF6-2DF904995F6F";
paths = (
{
closed = 1;
nodes = (
"649 158 LINE",
"394 163 OFFCURVE",
"256 375 OFFCURVE",
"256 762 CURVE SMOOTH",
"256 870 OFFCURVE",
"265 956 OFFCURVE",
"282 1021 CURVE SMOOTH",
"317 1150 OFFCURVE",
"379 1208 OFFCURVE",
"500 1208 CURVE SMOOTH",
"676 1208 OFFCURVE",
"756 1044 OFFCURVE",
"760 700 CURVE",
"928 700 LINE",
"929 821 OFFCURVE",
"940 918 OFFCURVE",
"961 993 CURVE SMOOTH",
"1001 1141 OFFCURVE",
"1072 1210 OFFCURVE",
"1200 1210 CURVE SMOOTH",
"1258 1210 OFFCURVE",
"1302 1195 OFFCURVE",
"1333 1165 CURVE SMOOTH",
"1394 1104 OFFCURVE",
"1427 976 OFFCURVE",
"1427 764 CURVE SMOOTH",
"1427 389 OFFCURVE",
"1286 169 OFFCURVE",
"1034 158 CURVE",
"1034 -2 LINE",
"1148 1 OFFCURVE",
"1248 35 OFFCURVE",
"1334 98 CURVE SMOOTH",
"1505 224 OFFCURVE",
"1595 455 OFFCURVE",
"1595 764 CURVE SMOOTH",
"1595 1156 OFFCURVE",
"1465 1370 OFFCURVE",
"1214 1370 CURVE SMOOTH",
"1026 1370 OFFCURVE",
"903 1271 OFFCURVE",
"848 1083 CURVE",
"840 1083 LINE",
"797 1273 OFFCURVE",
"687 1368 OFFCURVE",
"510 1368 CURVE SMOOTH",
"420 1368 OFFCURVE",
"343 1345 OFFCURVE",
"280 1300 CURVE SMOOTH",
"152 1209 OFFCURVE",
"78 1027 OFFCURVE",
"78 762 CURVE SMOOTH",
"78 611 OFFCURVE",
"101 477 OFFCURVE",
"148 362 CURVE SMOOTH",
"241 131 OFFCURVE",
"421 2 OFFCURVE",
"649 -2 CURVE"
);
}
);
width = 1675;
}
);
note = uniABC1;
unicode = ABC1;
},
{
glyphname = uniABC2;
lastChange = "2016-11-10 14:25:36 +0000";
layers = (
{
layerId = "EB118A11-D526-4C4A-9BF6-2DF904995F6F";
paths = (
{
closed = 1;
nodes = (
"842 -8 OFFCURVE",
"1010 68 OFFCURVE",
"1165 207 CURVE",
"1059 322 LINE",
"939 213 OFFCURVE",
"779 143 OFFCURVE",
"623 143 CURVE SMOOTH",
"410 143 OFFCURVE",
"285 283 OFFCURVE",
"285 516 CURVE SMOOTH",
"285 757 OFFCURVE",
"398 893 OFFCURVE",
"606 893 CURVE SMOOTH",
"751 893 OFFCURVE",
"864 838 OFFCURVE",
"946 727 CURVE",
"1114 727 LINE",
"1114 1200 LINE",
"1188 1200 LINE",
"1188 1350 LINE",
"57 1350 LINE",
"57 1200 LINE",
"946 1200 LINE",
"946 926 LINE",
"838 999 OFFCURVE",
"721 1036 OFFCURVE",
"594 1036 CURVE SMOOTH",
"271 1036 OFFCURVE",
"109 863 OFFCURVE",
"109 518 CURVE SMOOTH",
"109 183 OFFCURVE",
"315 -8 OFFCURVE",
"623 -8 CURVE SMOOTH"
);
}
);
width = 1296;
}
);
note = uniABC2;
unicode = ABC2;
},
{
glyphname = uniABC3;
lastChange = "2016-11-10 14:25:36 +0000";
layers = (
{
layerId = "EB118A11-D526-4C4A-9BF6-2DF904995F6F";
paths = (
{
closed = 1;
nodes = (
"1328 -6 OFFCURVE",
"1364 -3 OFFCURVE",
"1389 4 CURVE",
"1356 150 LINE",
"1339 147 OFFCURVE",
"1323 145 OFFCURVE",
"1307 145 CURVE SMOOTH",
"1179 145 OFFCURVE",
"1110 218 OFFCURVE",
"1110 338 CURVE SMOOTH",
"1110 450 OFFCURVE",
"1190 545 OFFCURVE",
"1307 557 CURVE",
"1309 702 LINE",
"760 702 LINE",
"760 1200 LINE",
"1372 1200 LINE",
"1372 1350 LINE",
"70 1350 LINE",
"70 1200 LINE",
"141 1200 LINE",
"141 0 LINE",
"307 0 LINE",
"307 557 LINE",
"594 557 LINE",
"594 0 LINE",
"760 0 LINE",
"760 557 LINE",
"1063 557 LINE",
"990 497 OFFCURVE",
"954 414 OFFCURVE",
"954 307 CURVE SMOOTH",
"954 119 OFFCURVE",
"1079 -6 OFFCURVE",
"1282 -6 CURVE SMOOTH"
);
},
{
closed = 1;
nodes = (
"307 1200 LINE",
"594 1200 LINE",
"594 702 LINE",
"307 702 LINE"
);
}
);
width = 1466;
}
);
note = uniABC3;
unicode = ABC3;
},
{
glyphname = uniABC4;
lastChange = "2016-11-10 14:25:36 +0000";
layers = (
{
layerId = "EB118A11-D526-4C4A-9BF6-2DF904995F6F";
paths = (
{
closed = 1;
nodes = (
"210 16 OFFCURVE",
"293 50 OFFCURVE",
"363 102 CURVE SMOOTH",
"502 205 OFFCURVE",
"580 372 OFFCURVE",
"580 557 CURVE SMOOTH",
"580 762 OFFCURVE",
"482 991 OFFCURVE",
"309 1200 CURVE",
"735 1200 LINE",
"735 0 LINE",
"903 0 LINE",
"903 1200 LINE",
"1118 1200 LINE",
"1118 0 LINE",
"1286 0 LINE",
"1286 1200 LINE",
"1710 1200 LINE",
"1543 999 OFFCURVE",
"1442 764 OFFCURVE",
"1442 557 CURVE SMOOTH",
"1442 462 OFFCURVE",
"1461 376 OFFCURVE",
"1499 297 CURVE SMOOTH",
"1574 139 OFFCURVE",
"1718 32 OFFCURVE",
"1909 0 CURVE",
"1954 150 LINE",
"1735 197 OFFCURVE",
"1610 355 OFFCURVE",
"1610 584 CURVE SMOOTH",
"1610 793 OFFCURVE",
"1720 1019 OFFCURVE",
"1923 1200 CURVE",
"1923 1350 LINE",
"98 1350 LINE",
"98 1200 LINE",
"286 1027 OFFCURVE",
"412 788 OFFCURVE",
"412 584 CURVE SMOOTH",
"412 351 OFFCURVE",
"287 197 OFFCURVE",
"68 150 CURVE",
"115 0 LINE"
);
}
);
width = 1995;
}
);
note = uniABC4;
unicode = ABC4;
},
{
glyphname = uniABC5;
lastChange = "2016-11-10 14:25:36 +0000";
layers = (
{
layerId = "EB118A11-D526-4C4A-9BF6-2DF904995F6F";
paths = (
{
closed = 1;
nodes = (
"957 -14 OFFCURVE",
"1137 58 OFFCURVE",
"1303 201 CURVE",
"1202 326 LINE",
"1065 210 OFFCURVE",
"920 152 OFFCURVE",
"768 152 CURVE SMOOTH",
"679 152 OFFCURVE",
"601 172 OFFCURVE",
"534 213 CURVE SMOOTH",
"398 294 OFFCURVE",
"322 450 OFFCURVE",
"322 659 CURVE SMOOTH",
"322 837 OFFCURVE",
"357 1017 OFFCURVE",
"428 1200 CURVE",
"1116 1200 LINE",
"922 842 LINE",
"1073 762 LINE",
"1300 1200 LINE",
"1403 1200 LINE",
"1403 1350 LINE",
"94 1350 LINE",
"94 1200 LINE",
"231 1200 LINE",
"170 1004 OFFCURVE",
"139 824 OFFCURVE",
"139 659 CURVE SMOOTH",
"139 523 OFFCURVE",
"166 404 OFFCURVE",
"219 303 CURVE SMOOTH",
"325 100 OFFCURVE",
"525 -14 OFFCURVE",
"764 -14 CURVE SMOOTH"
);
}
);
width = 1477;
}
);
note = uniABC5;
unicode = ABC5;
},
{
glyphname = uniABC6;
lastChange = "2016-11-10 14:25:36 +0000";
layers = (
{
layerId = "EB118A11-D526-4C4A-9BF6-2DF904995F6F";
paths = (
{
closed = 1;
nodes = (
"344 43 OFFCURVE",
"519 250 OFFCURVE",
"526 545 CURVE",
"999 545 LINE",
"1001 450 OFFCURVE",
"1020 365 OFFCURVE",
"1057 288 CURVE SMOOTH",
"1129 134 OFFCURVE",
"1270 28 OFFCURVE",
"1454 0 CURVE",
"1501 150 LINE",
"1285 197 OFFCURVE",
"1165 352 OFFCURVE",
"1165 584 CURVE SMOOTH",
"1165 780 OFFCURVE",
"1289 1024 OFFCURVE",
"1477 1200 CURVE",
"1477 1350 LINE",
"47 1350 LINE",
"47 1200 LINE",
"244 1028 OFFCURVE",
"362 799 OFFCURVE",
"362 584 CURVE SMOOTH",
"362 352 OFFCURVE",
"242 197 OFFCURVE",
"25 150 CURVE",
"72 0 LINE"
);
},
{
closed = 1;
nodes = (
"481 863 OFFCURVE",
"397 1033 OFFCURVE",
"260 1200 CURVE",
"1274 1200 LINE",
"1134 1033 OFFCURVE",
"1047 863 OFFCURVE",
"1014 692 CURVE",
"512 692 LINE"
);
}
);
width = 1561;
}
);
note = uniABC6;
unicode = ABC6;
},
{
glyphname = uniABC7;
lastChange = "2016-11-10 14:25:36 +0000";
layers = (
{
layerId = "EB118A11-D526-4C4A-9BF6-2DF904995F6F";
paths = (
{
closed = 1;
nodes = (
"622 -6 OFFCURVE",
"778 165 OFFCURVE",
"778 428 CURVE SMOOTH",
"778 673 OFFCURVE",
"625 952 OFFCURVE",
"362 1200 CURVE",
"713 1200 LINE SMOOTH",
"844 1200 OFFCURVE",
"953 1184 OFFCURVE",
"1038 1153 CURVE",
"945 1054 OFFCURVE",
"891 945 OFFCURVE",
"891 852 CURVE SMOOTH",
"891 653 OFFCURVE",
"1014 532 OFFCURVE",
"1210 532 CURVE SMOOTH",
"1269 532 OFFCURVE",
"1322 544 OFFCURVE",
"1370 569 CURVE SMOOTH",
"1465 617 OFFCURVE",
"1522 712 OFFCURVE",
"1522 836 CURVE SMOOTH",
"1522 977 OFFCURVE",
"1453 1092 OFFCURVE",
"1286 1200 CURVE",
"1314 1228 OFFCURVE",
"1373 1279 OFFCURVE",
"1464 1354 CURVE",
"1360 1466 LINE",
"1315 1429 OFFCURVE",
"1244 1364 OFFCURVE",
"1145 1272 CURVE",
"1020 1324 OFFCURVE",
"880 1350 OFFCURVE",
"727 1350 CURVE SMOOTH",
"117 1350 LINE",
"117 1200 LINE",
"412 988 OFFCURVE",
"604 687 OFFCURVE",
"604 436 CURVE SMOOTH",
"604 263 OFFCURVE",
"521 147 OFFCURVE",
"385 147 CURVE SMOOTH",
"317 147 OFFCURVE",
"242 187 OFFCURVE",
"182 270 CURVE",
"57 162 LINE",
"146 50 OFFCURVE",
"258 -6 OFFCURVE",
"393 -6 CURVE SMOOTH"
);
},
{
closed = 1;
nodes = (
"1107 666 OFFCURVE",
"1049 733 OFFCURVE",
"1049 852 CURVE SMOOTH",
"1049 931 OFFCURVE",
"1091 1015 OFFCURVE",
"1176 1104 CURVE",
"1295 1040 OFFCURVE",
"1366 941 OFFCURVE",
"1366 836 CURVE SMOOTH",
"1366 733 OFFCURVE",
"1302 666 OFFCURVE",
"1210 666 CURVE SMOOTH"
);
}
);
width = 1606;
}
);
note = uniABC7;
unicode = ABC7;
},
{
glyphname = uniABC8;
lastChange = "2016-11-10 14:25:36 +0000";
layers = (
{
layerId = "EB118A11-D526-4C4A-9BF6-2DF904995F6F";
paths = (
{
closed = 1;
nodes = (
"343 49 OFFCURVE",
"492 192 OFFCURVE",
"545 412 CURVE SMOOTH",
"613 676 OFFCURVE",
"707 782 OFFCURVE",
"864 782 CURVE SMOOTH",
"972 782 OFFCURVE",
"1042 719 OFFCURVE",
"1042 627 CURVE",
"1037 583 LINE",
"1018 467 OFFCURVE",
"1008 398 OFFCURVE",
"1008 377 CURVE SMOOTH",
"1008 246 OFFCURVE",
"1094 164 OFFCURVE",
"1223 164 CURVE SMOOTH",
"1296 164 OFFCURVE",
"1358 189 OFFCURVE",
"1409 240 CURVE",
"1307 348 LINE",
"1282 325 OFFCURVE",
"1257 313 OFFCURVE",
"1231 313 CURVE SMOOTH",
"1191 313 OFFCURVE",
"1171 334 OFFCURVE",
"1171 377 CURVE SMOOTH",
"1171 404 OFFCURVE",
"1178 445 OFFCURVE",
"1191 500 CURVE SMOOTH",
"1204 554 OFFCURVE",
"1210 596 OFFCURVE",
"1210 627 CURVE SMOOTH",
"1210 687 OFFCURVE",
"1196 740 OFFCURVE",
"1167 785 CURVE SMOOTH",
"1110 876 OFFCURVE",
"998 928 OFFCURVE",
"870 928 CURVE SMOOTH",
"703 928 OFFCURVE",
"599 855 OFFCURVE",
"528 707 CURVE",
"503 854 OFFCURVE",
"415 1019 OFFCURVE",
"264 1200 CURVE",
"1421 1200 LINE",
"1421 1350 LINE",
"70 1350 LINE",
"70 1200 LINE",
"261 1023 OFFCURVE",
"395 762 OFFCURVE",
"395 561 CURVE SMOOTH",
"395 345 OFFCURVE",
"278 202 OFFCURVE",
"59 147 CURVE",
"106 0 LINE"
);
}
);
width = 1491;
}
);
note = uniABC8;
unicode = ABC8;
},
{
glyphname = uniABC9;
lastChange = "2016-11-10 14:25:36 +0000";
layers = (
{
layerId = "EB118A11-D526-4C4A-9BF6-2DF904995F6F";
paths = (
{
closed = 1;
nodes = (
"1704 0 LINE",
"1704 147 LINE",
"1618 147 LINE",
"1618 1202 LINE",
"1694 1202 LINE",
"1694 1350 LINE",
"602 1350 LINE",
"602 147 LINE",
"408 147 LINE",
"472 218 OFFCURVE",
"504 298 OFFCURVE",
"504 387 CURVE SMOOTH",
"504 575 OFFCURVE",
"382 682 OFFCURVE",
"182 682 CURVE SMOOTH",
"113 682 OFFCURVE",
"57 672 OFFCURVE",
"12 651 CURVE",
"66 512 LINE",
"104 527 OFFCURVE",
"141 535 OFFCURVE",
"178 535 CURVE SMOOTH",
"286 535 OFFCURVE",
"344 468 OFFCURVE",
"344 365 CURVE SMOOTH",
"344 260 OFFCURVE",
"269 172 OFFCURVE",
"145 147 CURVE",
"145 0 LINE"
);
},
{
closed = 1;
nodes = (
"778 1202 LINE",
"1032 1202 LINE",
"1032 147 LINE",
"778 147 LINE"
);
},
{
closed = 1;
nodes = (
"1196 1202 LINE",
"1452 1202 LINE",
"1452 147 LINE",
"1196 147 LINE"
);
}
);
width = 1767;
}
);
note = uniABC9;
unicode = ABC9;
},
{
glyphname = uniABCA;
lastChange = "2016-11-10 14:25:36 +0000";
layers = (
{
layerId = "EB118A11-D526-4C4A-9BF6-2DF904995F6F";
paths = (
{
closed = 1;
nodes = (
"543 -6 OFFCURVE",
"642 45 OFFCURVE",
"709 137 CURVE",
"762 42 OFFCURVE",
"849 -6 OFFCURVE",
"969 -6 CURVE SMOOTH",
"1168 -6 OFFCURVE",
"1288 110 OFFCURVE",
"1288 301 CURVE SMOOTH",
"1288 445 OFFCURVE",
"1193 553 OFFCURVE",
"1034 588 CURVE",
"1004 434 LINE",
"1079 419 OFFCURVE",
"1126 368 OFFCURVE",
"1126 301 CURVE SMOOTH",
"1126 209 OFFCURVE",
"1071 141 OFFCURVE",
"967 141 CURVE SMOOTH",
"859 141 OFFCURVE",
"788 211 OFFCURVE",
"788 330 CURVE SMOOTH",
"788 1198 LINE",
"1292 1198 LINE",
"1292 1350 LINE",
"86 1350 LINE",
"86 1198 LINE",
"625 1198 LINE",
"625 330 LINE SMOOTH",
"625 213 OFFCURVE",
"554 141 OFFCURVE",
"451 141 CURVE SMOOTH",
"340 141 OFFCURVE",
"289 206 OFFCURVE",
"289 301 CURVE SMOOTH",
"289 368 OFFCURVE",
"333 419 OFFCURVE",
"406 434 CURVE",
"377 588 LINE",
"221 553 OFFCURVE",
"127 446 OFFCURVE",
"127 301 CURVE SMOOTH",
"127 110 OFFCURVE",
"244 -6 OFFCURVE",
"444 -6 CURVE SMOOTH"
);
}
);
width = 1382;
}
);
note = uniABCA;
unicode = ABCA;
},
{
glyphname = uniABCB;
lastChange = "2016-11-10 14:25:36 +0000";
layers = (
{
layerId = "EB118A11-D526-4C4A-9BF6-2DF904995F6F";
paths = (
{
closed = 1;
nodes = (
"185 16 OFFCURVE",
"269 50 OFFCURVE",
"343 102 CURVE SMOOTH",
"490 206 OFFCURVE",
"563 363 OFFCURVE",
"563 563 CURVE SMOOTH",
"563 779 OFFCURVE",
"474 991 OFFCURVE",
"295 1200 CURVE",
"1432 1200 LINE",
"1245 995 OFFCURVE",
"1151 786 OFFCURVE",
"1151 575 CURVE SMOOTH",
"1151 555 LINE",
"1153 532 LINE",
"1089 611 OFFCURVE",
"1015 716 OFFCURVE",
"932 848 CURVE",
"795 752 LINE",
"915 577 OFFCURVE",
"1018 442 OFFCURVE",
"1104 347 CURVE SMOOTH",
"1276 156 OFFCURVE",
"1451 40 OFFCURVE",
"1616 0 CURVE",
"1663 150 LINE",
"1438 209 OFFCURVE",
"1311 360 OFFCURVE",
"1311 555 CURVE SMOOTH",
"1311 759 OFFCURVE",
"1422 988 OFFCURVE",
"1642 1204 CURVE",
"1642 1350 LINE",
"76 1350 LINE",
"76 1204 LINE",
"277 1012 OFFCURVE",
"395 768 OFFCURVE",
"395 575 CURVE SMOOTH",
"395 358 OFFCURVE",
"272 212 OFFCURVE",
"45 164 CURVE",
"90 0 LINE"
);
}
);
width = 1710;
}
);
note = uniABCB;
unicode = ABCB;
},
{
glyphname = uniABCC;
lastChange = "2016-11-10 14:25:36 +0000";
layers = (
{
layerId = "EB118A11-D526-4C4A-9BF6-2DF904995F6F";
paths = (
{
closed = 1;
nodes = (
"678 467 LINE",
"678 637 LINE",
"584 637 LINE SMOOTH",
"401 637 OFFCURVE",
"299 728 OFFCURVE",
"299 920 CURVE SMOOTH",
"299 1095 OFFCURVE",
"421 1200 OFFCURVE",
"612 1200 CURVE SMOOTH",
"989 1200 LINE SMOOTH",
"1186 1200 OFFCURVE",
"1313 1088 OFFCURVE",
"1313 913 CURVE SMOOTH",
"1313 740 OFFCURVE",
"1209 637 OFFCURVE",
"1020 637 CURVE SMOOTH",
"930 637 LINE",
"930 475 LINE",
"1174 147 LINE SMOOTH",
"1251 42 OFFCURVE",
"1334 -10 OFFCURVE",
"1423 -10 CURVE SMOOTH",
"1469 -10 OFFCURVE",
"1508 -4 OFFCURVE",
"1540 8 CURVE",
"1509 160 LINE",
"1479 149 OFFCURVE",
"1455 143 OFFCURVE",
"1438 143 CURVE SMOOTH",
"1378 143 OFFCURVE",
"1335 187 OFFCURVE",
"1286 254 CURVE SMOOTH",
"1233 324 OFFCURVE",
"1166 408 OFFCURVE",
"1087 506 CURVE",
"1096 508 LINE",
"1161 510 OFFCURVE",
"1225 528 OFFCURVE",
"1286 563 CURVE SMOOTH",
"1409 631 OFFCURVE",
"1479 752 OFFCURVE",
"1479 899 CURVE SMOOTH",
"1479 1022 OFFCURVE",
"1432 1122 OFFCURVE",
"1339 1200 CURVE",
"1544 1200 LINE",
"1544 1350 LINE",
"76 1350 LINE",
"76 1200 LINE",
"264 1200 LINE",
"175 1127 OFFCURVE",
"131 1030 OFFCURVE",
"131 911 CURVE SMOOTH",
"131 830 OFFCURVE",
"148 760 OFFCURVE",
"182 700 CURVE SMOOTH",
"250 580 OFFCURVE",
"377 511 OFFCURVE",
"514 508 CURVE",
"113 106 LINE",
"238 -10 LINE"
);
}
);
width = 1628;
}
);
note = uniABCC;
unicode = ABCC;
},
{
glyphname = uniABCD;
lastChange = "2016-11-10 14:25:36 +0000";
layers = (
{
layerId = "EB118A11-D526-4C4A-9BF6-2DF904995F6F";
paths = (
{
closed = 1;
nodes = (
"268 -1 OFFCURVE",
"346 18 OFFCURVE",
"409 55 CURVE SMOOTH",
"534 130 OFFCURVE",
"621 263 OFFCURVE",
"676 483 CURVE SMOOTH",
"699 580 OFFCURVE",
"728 663 OFFCURVE",
"761 732 CURVE SMOOTH",
"827 870 OFFCURVE",
"901 930 OFFCURVE",
"1008 930 CURVE SMOOTH",
"1105 930 OFFCURVE",
"1163 863 OFFCURVE",
"1163 756 CURVE SMOOTH",
"1163 647 OFFCURVE",
"1104 584 OFFCURVE",
"999 584 CURVE SMOOTH",
"971 584 OFFCURVE",
"909 602 OFFCURVE",
"893 614 CURVE",
"827 492 LINE",
"866 465 OFFCURVE",
"946 442 OFFCURVE",
"1014 442 CURVE SMOOTH",
"1072 442 OFFCURVE",
"1125 455 OFFCURVE",
"1172 480 CURVE SMOOTH",
"1266 530 OFFCURVE",
"1321 625 OFFCURVE",
"1321 760 CURVE SMOOTH",
"1321 827 OFFCURVE",
"1307 883 OFFCURVE",
"1280 930 CURVE SMOOTH",
"1224 1022 OFFCURVE",
"1123 1073 OFFCURVE",
"1006 1073 CURVE SMOOTH",
"785 1073 OFFCURVE",
"626 897 OFFCURVE",
"541 565 CURVE SMOOTH",
"515 462 OFFCURVE",
"487 381 OFFCURVE",
"456 323 CURVE SMOOTH",
"394 206 OFFCURVE",
"316 149 OFFCURVE",
"151 149 CURVE SMOOTH",
"106 150 LINE",
"90 4 LINE",
"119 1 OFFCURVE",
"147 -1 OFFCURVE",
"174 -1 CURVE SMOOTH"
);
},
{
closed = 1;
nodes = (
"1368 1200 LINE",
"1368 1350 LINE",
"55 1350 LINE",
"55 1200 LINE"
);
}
);
width = 1417;
}
);
note = uniABCD;
unicode = ABCD;
},
{
glyphname = uniABCE;
lastChange = "2016-11-10 14:25:36 +0000";
layers = (
{
layerId = "EB118A11-D526-4C4A-9BF6-2DF904995F6F";
paths = (
{
closed = 1;
nodes = (
"365 0 LINE",
"369 135 OFFCURVE",
"440 203 OFFCURVE",
"553 203 CURVE SMOOTH",
"657 203 OFFCURVE",
"718 129 OFFCURVE",
"725 0 CURVE",
"893 0 LINE",
"897 143 OFFCURVE",
"944 197 OFFCURVE",
"1040 197 CURVE SMOOTH",
"1125 197 OFFCURVE",
"1170 131 OFFCURVE",
"1176 0 CURVE",
"1354 0 LINE",
"1410 75 OFFCURVE",
"1438 146 OFFCURVE",
"1438 211 CURVE SMOOTH",
"1438 344 OFFCURVE",
"1402 408 OFFCURVE",
"1274 553 CURVE",
"1407 640 OFFCURVE",
"1466 721 OFFCURVE",
"1466 836 CURVE SMOOTH",
"1466 985 OFFCURVE",
"1357 1094 OFFCURVE",
"1204 1094 CURVE SMOOTH",
"1051 1094 OFFCURVE",
"938 995 OFFCURVE",
"938 838 CURVE SMOOTH",
"938 775 OFFCURVE",
"977 693 OFFCURVE",
"1042 621 CURVE",
"985 599 OFFCURVE",
"912 588 OFFCURVE",
"821 588 CURVE SMOOTH",
"482 588 OFFCURVE",
"288 767 OFFCURVE",
"285 1094 CURVE",
"285 1138 OFFCURVE",
"286 1173 OFFCURVE",
"289 1200 CURVE",
"1473 1200 LINE",
"1473 1350 LINE",
"66 1350 LINE",
"66 1200 LINE",
"123 1200 LINE",
"119 1167 OFFCURVE",
"117 1128 OFFCURVE",
"117 1085 CURVE SMOOTH",
"120 684 OFFCURVE",
"392 440 OFFCURVE",
"823 440 CURVE SMOOTH",
"935 440 OFFCURVE",
"1037 456 OFFCURVE",
"1130 487 CURVE",
"1237 382 OFFCURVE",
"1290 299 OFFCURVE",
"1290 236 CURVE SMOOTH",
"1290 209 OFFCURVE",
"1285 183 OFFCURVE",
"1274 156 CURVE",
"1242 271 OFFCURVE",
"1156 342 OFFCURVE",
"1040 342 CURVE SMOOTH",
"924 342 OFFCURVE",
"836 279 OFFCURVE",
"809 178 CURVE",
"772 289 OFFCURVE",
"674 348 OFFCURVE",
"539 348 CURVE SMOOTH",
"472 348 OFFCURVE",
"413 334 OFFCURVE",
"364 307 CURVE SMOOTH",
"264 252 OFFCURVE",
"204 135 OFFCURVE",
"197 0 CURVE"
);
},
{
closed = 1;
nodes = (
"1124 726 OFFCURVE",
"1098 782 OFFCURVE",
"1098 840 CURVE SMOOTH",
"1098 905 OFFCURVE",
"1143 946 OFFCURVE",
"1204 946 CURVE SMOOTH",
"1270 946 OFFCURVE",
"1303 909 OFFCURVE",
"1303 836 CURVE SMOOTH",
"1303 770 OFFCURVE",
"1261 715 OFFCURVE",
"1176 672 CURVE"
);
}
);
width = 1565;
}
);
note = uniABCE;
unicode = ABCE;
},
{
glyphname = uniABCF;
lastChange = "2016-11-10 14:25:36 +0000";
layers = (
{
layerId = "EB118A11-D526-4C4A-9BF6-2DF904995F6F";
paths = (
{
closed = 1;
nodes = (
"1337 -10 OFFCURVE",
"1479 135 OFFCURVE",
"1479 375 CURVE SMOOTH",
"1479 446 OFFCURVE",
"1460 509 OFFCURVE",
"1423 566 CURVE SMOOTH",
"1348 679 OFFCURVE",
"1207 761 OFFCURVE",
"895 852 CURVE SMOOTH",
"762 891 LINE SMOOTH",
"554 950 OFFCURVE",
"431 1015 OFFCURVE",
"287 1200 CURVE",
"1468 1200 LINE",
"1468 1350 LINE",
"76 1350 LINE",
"76 1200 LINE",
"80 1200 LINE",
"291 1011 OFFCURVE",
"430 738 OFFCURVE",
"430 539 CURVE SMOOTH",
"430 327 OFFCURVE",
"294 195 OFFCURVE",
"45 160 CURVE",
"92 0 LINE",
"403 48 OFFCURVE",
"596 248 OFFCURVE",
"596 524 CURVE SMOOTH",
"596 621 OFFCURVE",
"570 721 OFFCURVE",
"518 825 CURVE",
"639 760 OFFCURVE",
"767 723 OFFCURVE",
"887 688 CURVE SMOOTH",
"1012 653 OFFCURVE",
"1100 623 OFFCURVE",
"1152 597 CURVE SMOOTH",
"1256 544 OFFCURVE",
"1311 478 OFFCURVE",
"1311 379 CURVE SMOOTH",
"1311 236 OFFCURVE",
"1237 143 OFFCURVE",
"1114 143 CURVE SMOOTH",
"1057 143 OFFCURVE",
"1001 164 OFFCURVE",
"946 205 CURVE",
"852 78 LINE",
"919 23 OFFCURVE",
"1021 -10 OFFCURVE",
"1114 -10 CURVE SMOOTH"
);
}
);
width = 1550;
}
);
note = uniABCF;
unicode = ABCF;
},
{
glyphname = uniABD0;
lastChange = "2016-11-10 14:25:36 +0000";
layers = (
{
layerId = "EB118A11-D526-4C4A-9BF6-2DF904995F6F";
paths = (
{
closed = 1;
nodes = (
"314 33 OFFCURVE",
"441 70 OFFCURVE",
"586 70 CURVE SMOOTH",
"659 70 OFFCURVE",
"751 57 OFFCURVE",
"860 31 CURVE SMOOTH",
"959 8 OFFCURVE",
"1043 -4 OFFCURVE",
"1112 -4 CURVE SMOOTH",
"1271 -4 OFFCURVE",
"1396 50 OFFCURVE",
"1487 158 CURVE",
"1366 260 LINE",
"1302 177 OFFCURVE",
"1224 147 OFFCURVE",
"1112 147 CURVE SMOOTH",
"1037 147 OFFCURVE",
"948 160 OFFCURVE",
"844 186 CURVE SMOOTH",
"746 209 OFFCURVE",
"659 221 OFFCURVE",
"582 221 CURVE SMOOTH",
"519 221 OFFCURVE",
"447 210 OFFCURVE",
"365 188 CURVE",
"426 324 OFFCURVE",
"457 460 OFFCURVE",
"457 596 CURVE SMOOTH",
"457 613 LINE",
"455 629 LINE",
"517 652 OFFCURVE",
"572 664 OFFCURVE",
"621 664 CURVE SMOOTH",
"713 664 OFFCURVE",
"787 648 OFFCURVE",
"858 633 CURVE SMOOTH",
"935 615 OFFCURVE",
"993 606 OFFCURVE",
"1032 606 CURVE SMOOTH",
"1153 606 OFFCURVE",
"1269 627 OFFCURVE",
"1368 711 CURVE",
"1292 844 LINE",
"1219 781 OFFCURVE",
"1119 754 OFFCURVE",
"1032 754 CURVE SMOOTH",
"964 754 OFFCURVE",
"901 769 OFFCURVE",
"836 784 CURVE SMOOTH",
"742 805 OFFCURVE",
"670 815 OFFCURVE",
"621 815 CURVE SMOOTH",
"563 815 OFFCURVE",
"501 803 OFFCURVE",
"434 778 CURVE",
"403 908 OFFCURVE",
"343 1049 OFFCURVE",
"252 1200 CURVE",
"1425 1200 LINE",
"1425 1350 LINE",
"53 1350 LINE",
"53 1200 LINE",
"94 1152 OFFCURVE",
"132 1094 OFFCURVE",
"167 1027 CURVE SMOOTH",
"237 892 OFFCURVE",
"281 743 OFFCURVE",
"281 594 CURVE SMOOTH",
"281 422 OFFCURVE",
"219 240 OFFCURVE",
"96 47 CURVE",
"141 20 OFFCURVE",
"188 -4 OFFCURVE",
"238 -27 CURVE"
);
}
);
width = 1526;
}
);
note = uniABD0;
unicode = ABD0;
},
{
glyphname = uniABD1;
lastChange = "2016-11-10 14:25:36 +0000";
layers = (
{
layerId = "EB118A11-D526-4C4A-9BF6-2DF904995F6F";
paths = (
{
closed = 1;
nodes = (
"1144 -8 OFFCURVE",
"1353 54 OFFCURVE",
"1534 178 CURVE",
"1436 309 LINE",
"1357 252 OFFCURVE",
"1272 209 OFFCURVE",
"1182 180 CURVE",
"1182 1200 LINE",
"1513 1200 LINE",
"1513 1350 LINE",
"76 1350 LINE",
"76 1200 LINE",
"160 1200 LINE",
"121 1065 OFFCURVE",
"102 923 OFFCURVE",
"102 772 CURVE SMOOTH",
"102 613 OFFCURVE",
"133 476 OFFCURVE",
"196 361 CURVE SMOOTH",
"321 130 OFFCURVE",
"590 -8 OFFCURVE",
"907 -8 CURVE SMOOTH"
);
},
{
closed = 1;
nodes = (
"385 299 OFFCURVE",
"274 496 OFFCURVE",
"274 772 CURVE SMOOTH",
"274 928 OFFCURVE",
"304 1083 OFFCURVE",
"347 1200 CURVE",
"604 1200 LINE",
"604 202 LINE"
);
},
{
closed = 1;
nodes = (
"862 143 OFFCURVE",
"817 146 OFFCURVE",
"772 153 CURVE",
"772 1200 LINE",
"1014 1200 LINE",
"1014 148 LINE",
"984 145 OFFCURVE",
"948 143 OFFCURVE",
"905 143 CURVE SMOOTH"
);
}
);
width = 1589;
}
);
note = uniABD1;
unicode = ABD1;
},
{
glyphname = uniABD2;
lastChange = "2016-11-10 14:25:36 +0000";
layers = (
{
layerId = "EB118A11-D526-4C4A-9BF6-2DF904995F6F";
paths = (
{
closed = 1;
nodes = (
"375 0 LINE",
"375 1200 LINE",
"614 1200 LINE",
"614 0 LINE",
"784 0 LINE",
"784 1200 LINE",
"1004 1200 LINE",
"1004 805 LINE SMOOTH",
"1004 616 OFFCURVE",
"1093 522 OFFCURVE",
"1272 522 CURVE SMOOTH",
"1424 522 OFFCURVE",
"1525 622 OFFCURVE",
"1550 809 CURVE",
"1395 850 LINE",
"1382 731 OFFCURVE",
"1349 668 OFFCURVE",
"1274 668 CURVE SMOOTH",
"1199 668 OFFCURVE",
"1163 706 OFFCURVE",
"1163 795 CURVE SMOOTH",
"1163 1202 LINE",
"1491 1202 LINE",
"1491 1350 LINE",
"82 1350 LINE",
"82 1200 LINE",
"209 1200 LINE",
"209 0 LINE"
);
}
);
width = 1612;
}
);
note = uniABD2;
unicode = ABD2;
},
{
glyphname = uniABD3;
lastChange = "2016-11-10 14:25:36 +0000";
layers = (
{
layerId = "EB118A11-D526-4C4A-9BF6-2DF904995F6F";
paths = (
{
closed = 1;
nodes = (
"1013 -14 OFFCURVE",
"1117 2 OFFCURVE",
"1221 78 CURVE",
"1182 143 LINE",
"1145 207 LINE",
"1069 160 OFFCURVE",
"998 137 OFFCURVE",
"932 137 CURVE SMOOTH",
"801 137 OFFCURVE",
"715 221 OFFCURVE",
"715 356 CURVE SMOOTH",
"715 489 OFFCURVE",
"813 584 OFFCURVE",
"958 604 CURVE SMOOTH",
"1145 631 LINE",
"1096 793 LINE",
"352 680 LINE",
"350 690 LINE",
"1194 1200 LINE",
"1323 1200 LINE",
"1323 1350 LINE",
"76 1350 LINE",
"76 1200 LINE",
"901 1200 LINE",
"166 760 LINE",
"283 514 LINE",
"651 571 LINE",
"583 518 OFFCURVE",
"547 435 OFFCURVE",
"547 340 CURVE SMOOTH",
"547 263 OFFCURVE",
"563 199 OFFCURVE",
"596 147 CURVE SMOOTH",
"660 43 OFFCURVE",
"777 -14 OFFCURVE",
"918 -14 CURVE SMOOTH"
);
}
);
width = 1409;
}
);
note = uniABD3;
unicode = ABD3;
},
{
glyphname = uniABD4;
lastChange = "2016-11-10 14:25:36 +0000";
layers = (
{
layerId = "EB118A11-D526-4C4A-9BF6-2DF904995F6F";
paths = (
{
closed = 1;
nodes = (
"1040 0 LINE",
"1040 967 LINE SMOOTH",
"1040 1171 OFFCURVE",
"1085 1239 OFFCURVE",
"1206 1239 CURVE SMOOTH",
"1319 1239 OFFCURVE",
"1359 1131 OFFCURVE",
"1362 920 CURVE",
"1528 942 LINE",
"1521 1241 OFFCURVE",
"1412 1395 OFFCURVE",
"1212 1395 CURVE SMOOTH",
"1065 1395 OFFCURVE",
"966 1321 OFFCURVE",
"930 1188 CURVE",
"846 1319 OFFCURVE",
"735 1376 OFFCURVE",
"555 1376 CURVE SMOOTH",
"244 1376 OFFCURVE",
"76 1183 OFFCURVE",
"76 856 CURVE SMOOTH",
"76 0 LINE"
);
},
{
closed = 1;
nodes = (
"246 578 LINE",
"872 578 LINE",
"872 145 LINE",
"246 145 LINE"
);
},
{
closed = 1;
nodes = (
"246 883 LINE SMOOTH",
"246 1100 OFFCURVE",
"360 1221 OFFCURVE",
"557 1221 CURVE SMOOTH",
"756 1221 OFFCURVE",
"872 1102 OFFCURVE",
"872 901 CURVE SMOOTH",
"872 723 LINE",
"246 723 LINE"
);
}
);
width = 1610;
}
);
note = uniABD4;
unicode = ABD4;
},
{
glyphname = uniABD5;
lastChange = "2016-11-10 14:25:36 +0000";
layers = (
{
layerId = "EB118A11-D526-4C4A-9BF6-2DF904995F6F";
paths = (
{
closed = 1;
nodes = (
"802 -18 OFFCURVE",
"874 -1 OFFCURVE",
"938 32 CURVE SMOOTH",
"1066 98 OFFCURVE",
"1128 212 OFFCURVE",
"1128 360 CURVE SMOOTH",
"1128 408 OFFCURVE",
"1118 455 OFFCURVE",
"1099 500 CURVE SMOOTH",
"1059 590 OFFCURVE",
"1000 668 OFFCURVE",
"827 829 CURVE",
"996 977 OFFCURVE",
"1245 1137 OFFCURVE",
"1372 1200 CURVE",
"1372 1350 LINE",
"70 1350 LINE",
"70 1200 LINE",
"98 1187 OFFCURVE",
"151 1157 OFFCURVE",
"228 1110 CURVE SMOOTH",
"382 1016 OFFCURVE",
"518 916 OFFCURVE",
"614 831 CURVE",
"383 612 OFFCURVE",
"315 491 OFFCURVE",
"315 360 CURVE SMOOTH",
"315 280 OFFCURVE",
"333 212 OFFCURVE",
"368 156 CURVE SMOOTH",
"439 43 OFFCURVE",
"567 -18 OFFCURVE",
"723 -18 CURVE SMOOTH"
);
},
{
closed = 1;
nodes = (
"588 127 OFFCURVE",
"494 223 OFFCURVE",
"494 367 CURVE SMOOTH",
"494 490 OFFCURVE",
"570 606 OFFCURVE",
"723 715 CURVE",
"868 599 OFFCURVE",
"950 474 OFFCURVE",
"950 367 CURVE SMOOTH",
"950 226 OFFCURVE",
"855 127 OFFCURVE",
"723 127 CURVE SMOOTH"
);
},
{
closed = 1;
nodes = (
"608 1024 OFFCURVE",
"479 1115 OFFCURVE",
"336 1200 CURVE",
"1106 1200 LINE",
"955 1111 OFFCURVE",
"827 1020 OFFCURVE",
"723 928 CURVE"
);
}
);
width = 1448;
}
);
note = uniABD5;
unicode = ABD5;
},
{
glyphname = uniABD6;
lastChange = "2016-11-10 14:25:36 +0000";
layers = (
{
layerId = "EB118A11-D526-4C4A-9BF6-2DF904995F6F";
paths = (
{
closed = 1;
nodes = (
"797 -18 OFFCURVE",
"852 -11 OFFCURVE",
"902 4 CURVE SMOOTH",
"1001 32 OFFCURVE",
"1073 71 OFFCURVE",
"1178 168 CURVE",
"1153 191 OFFCURVE",
"1080 264 OFFCURVE",
"1061 285 CURVE",
"960 188 OFFCURVE",
"857 139 OFFCURVE",
"750 139 CURVE SMOOTH",
"547 139 OFFCURVE",
"444 246 OFFCURVE",
"444 438 CURVE SMOOTH",
"444 493 OFFCURVE",
"456 546 OFFCURVE",
"481 596 CURVE SMOOTH",
"530 696 OFFCURVE",
"616 789 OFFCURVE",
"736 878 CURVE SMOOTH",
"855 967 OFFCURVE",
"961 1034 OFFCURVE",
"1288 1202 CURVE",
"1288 1350 LINE",
"68 1350 LINE",
"68 1200 LINE",
"963 1200 LINE",
"476 941 OFFCURVE",
"266 698 OFFCURVE",
"266 422 CURVE SMOOTH",
"266 333 OFFCURVE",
"284 256 OFFCURVE",
"321 191 CURVE SMOOTH",
"393 60 OFFCURVE",
"554 -18 OFFCURVE",
"737 -18 CURVE SMOOTH"
);
}
);
width = 1364;
}
);
note = uniABD6;
unicode = ABD6;
},
{
glyphname = uniABD7;
lastChange = "2016-11-10 14:25:36 +0000";
layers = (
{
layerId = "EB118A11-D526-4C4A-9BF6-2DF904995F6F";
paths = (
{
closed = 1;
nodes = (
"552 -6 OFFCURVE",
"619 9 OFFCURVE",
"677 40 CURVE SMOOTH",
"792 100 OFFCURVE",
"862 218 OFFCURVE",
"862 383 CURVE SMOOTH",
"862 511 OFFCURVE",
"810 635 OFFCURVE",
"702 780 CURVE",
"837 835 OFFCURVE",
"997 882 OFFCURVE",
"1182 920 CURVE",
"1079 752 OFFCURVE",
"1028 591 OFFCURVE",
"1028 438 CURVE SMOOTH",
"1028 349 OFFCURVE",
"1045 272 OFFCURVE",
"1080 208 CURVE SMOOTH",
"1149 80 OFFCURVE",
"1277 10 OFFCURVE",
"1440 10 CURVE SMOOTH",
"1475 10 OFFCURVE",
"1501 11 OFFCURVE",
"1516 14 CURVE",
"1495 168 LINE",
"1440 164 LINE",
"1283 164 OFFCURVE",
"1196 263 OFFCURVE",
"1196 444 CURVE SMOOTH",
"1196 597 OFFCURVE",
"1256 771 OFFCURVE",
"1356 907 CURVE",
"1188 1071 LINE",
"943 1019 OFFCURVE",
"747 962 OFFCURVE",
"600 901 CURVE",
"531 979 OFFCURVE",
"432 1079 OFFCURVE",
"305 1200 CURVE",
"1468 1200 LINE",
"1468 1350 LINE",
"76 1350 LINE",
"76 1200 LINE",
"199 1099 OFFCURVE",
"273 1030 OFFCURVE",
"457 831 CURVE",
"232 702 OFFCURVE",
"119 545 OFFCURVE",
"119 358 CURVE SMOOTH",
"119 287 OFFCURVE",
"135 224 OFFCURVE",
"168 169 CURVE SMOOTH",
"232 59 OFFCURVE",
"352 -6 OFFCURVE",
"477 -6 CURVE SMOOTH"
);
},
{
closed = 1;
nodes = (
"370 152 OFFCURVE",
"287 227 OFFCURVE",
"287 354 CURVE SMOOTH",
"287 488 OFFCURVE",
"376 606 OFFCURVE",
"555 709 CURVE",
"649 588 OFFCURVE",
"696 480 OFFCURVE",
"696 385 CURVE SMOOTH",
"696 238 OFFCURVE",
"620 152 OFFCURVE",
"485 152 CURVE SMOOTH"
);
}
);
width = 1565;
}
);
note = uniABD7;
unicode = ABD7;
},
{
glyphname = uniABD8;
lastChange = "2016-11-10 14:25:36 +0000";
layers = (
{
layerId = "EB118A11-D526-4C4A-9BF6-2DF904995F6F";
paths = (
{
closed = 1;
nodes = (
"625 16 OFFCURVE",
"754 158 OFFCURVE",
"754 403 CURVE SMOOTH",
"754 537 LINE",
"1108 537 LINE",
"1041 481 OFFCURVE",
"1008 402 OFFCURVE",
"1008 322 CURVE SMOOTH",
"1008 227 OFFCURVE",
"1037 152 OFFCURVE",
"1094 96 CURVE SMOOTH",
"1208 -16 OFFCURVE",
"1377 -1 OFFCURVE",
"1497 43 CURVE",
"1438 184 LINE",
"1409 171 OFFCURVE",
"1377 164 OFFCURVE",
"1343 164 CURVE SMOOTH",
"1240 164 OFFCURVE",
"1169 229 OFFCURVE",
"1169 334 CURVE SMOOTH",
"1169 459 OFFCURVE",
"1264 533 OFFCURVE",
"1417 537 CURVE",
"1417 686 LINE",
"754 686 LINE",
"754 1200 LINE",
"1456 1200 LINE",
"1456 1350 LINE",
"39 1350 LINE",
"39 1200 LINE",
"584 1200 LINE",
"584 686 LINE",
"467 686 LINE SMOOTH",
"203 686 OFFCURVE",
"53 570 OFFCURVE",
"53 358 CURVE SMOOTH",
"53 300 OFFCURVE",
"68 244 OFFCURVE",
"97 191 CURVE SMOOTH",
"155 84 OFFCURVE",
"264 16 OFFCURVE",
"397 16 CURVE SMOOTH"
);
},
{
closed = 1;
nodes = (
"293 170 OFFCURVE",
"221 247 OFFCURVE",
"221 356 CURVE SMOOTH",
"221 469 OFFCURVE",
"309 537 OFFCURVE",
"453 537 CURVE SMOOTH",
"584 537 LINE",
"584 422 LINE SMOOTH",
"584 258 OFFCURVE",
"517 170 OFFCURVE",
"393 170 CURVE SMOOTH"
);
}
);
width = 1554;
}
);
note = uniABD8;
unicode = ABD8;
},
{
glyphname = uniABD9;
lastChange = "2016-11-10 14:25:36 +0000";
layers = (
{
layerId = "EB118A11-D526-4C4A-9BF6-2DF904995F6F";
paths = (
{
closed = 1;
nodes = (
"513 -6 OFFCURVE",
"597 31 OFFCURVE",
"664 106 CURVE",
"664 0 LINE",
"829 0 LINE",
"829 1198 LINE",
"1145 1198 LINE",
"1145 1350 LINE",
"84 1350 LINE",
"84 1198 LINE",
"664 1198 LINE",
"664 338 LINE",
"628 225 OFFCURVE",
"539 147 OFFCURVE",
"440 147 CURVE SMOOTH",
"331 147 OFFCURVE",
"258 219 OFFCURVE",
"258 322 CURVE SMOOTH",
"258 393 OFFCURVE",
"300 453 OFFCURVE",
"383 500 CURVE",
"305 641 LINE",
"157 574 OFFCURVE",
"92 471 OFFCURVE",
"92 319 CURVE SMOOTH",
"92 139 OFFCURVE",
"233 -6 OFFCURVE",
"414 -6 CURVE SMOOTH"
);
}
);
width = 1208;
}
);
note = uniABD9;
unicode = ABD9;
},
{
glyphname = uniABDA;
lastChange = "2016-11-10 14:25:36 +0000";
layers = (
{
layerId = "EB118A11-D526-4C4A-9BF6-2DF904995F6F";
paths = (
{
closed = 1;
nodes = (
"1096 0 LINE",
"1096 1200 LINE",
"1155 1200 LINE",
"1155 1350 LINE",
"90 1350 LINE",
"90 1200 LINE",
"451 1200 LINE",
"451 698 LINE SMOOTH",
"451 629 OFFCURVE",
"419 575 OFFCURVE",
"348 575 CURVE SMOOTH",
"268 575 OFFCURVE",
"232 622 OFFCURVE",
"201 741 CURVE",
"47 690 LINE",
"90 510 OFFCURVE",
"192 420 OFFCURVE",
"354 420 CURVE SMOOTH",
"515 420 OFFCURVE",
"614 524 OFFCURVE",
"614 700 CURVE SMOOTH",
"614 1200 LINE",
"930 1200 LINE",
"930 0 LINE"
);
}
);
width = 1241;
}
);
note = uniABDA;
unicode = ABDA;
},
{
glyphname = uniABDB;
lastChange = "2016-11-10 14:25:36 +0000";
layers = (
{
layerId = "EB118A11-D526-4C4A-9BF6-2DF904995F6F";
paths = (
{
closed = 1;
nodes = (
"1171 0 LINE",
"1171 1198 LINE",
"1425 1198 LINE",
"1425 735 LINE",
"1591 735 LINE",
"1591 1198 LINE",
"1661 1198 LINE",
"1661 1350 LINE",
"86 1350 LINE",
"86 1198 LINE",
"156 1198 LINE",
"156 0 LINE"
);
},
{
closed = 1;
nodes = (
"324 1198 LINE",
"584 1198 LINE",
"584 143 LINE",
"324 143 LINE"
);
},
{
closed = 1;
nodes = (
"754 1198 LINE",
"1006 1198 LINE",
"1006 143 LINE",
"754 143 LINE"
);
}
);
width = 1751;
}
);
note = uniABDB;
unicode = ABDB;
},
{
glyphname = uniABDC;
lastChange = "2016-11-10 14:25:36 +0000";
layers = (
{
layerId = "EB118A11-D526-4C4A-9BF6-2DF904995F6F";
paths = (
{
closed = 1;
nodes = (
"956 0 LINE",
"956 1200 LINE",
"1026 1200 LINE",
"1026 1350 LINE",
"78 1350 LINE",
"78 1200 LINE",
"793 1200 LINE",
"793 618 LINE",
"784 618 LINE",
"685 802 OFFCURVE",
"525 891 OFFCURVE",
"217 891 CURVE SMOOTH",
"145 891 LINE",
"145 741 LINE",
"217 741 LINE SMOOTH",
"597 741 OFFCURVE",
"793 513 OFFCURVE",
"793 80 CURVE SMOOTH",
"793 0 LINE"
);
}
);
width = 1106;
}
);
note = uniABDC;
unicode = ABDC;
},
{
glyphname = uniABDD;
lastChange = "2016-11-10 14:25:36 +0000";
layers = (
{
layerId = "EB118A11-D526-4C4A-9BF6-2DF904995F6F";
paths = (
{
closed = 1;
nodes = (
"324 0 LINE",
"324 557 LINE",
"610 557 LINE",
"610 0 LINE",
"776 0 LINE",
"776 557 LINE",
"1085 557 LINE",
"1085 702 LINE",
"776 702 LINE",
"776 1198 LINE",
"1151 1198 LINE",
"1151 1350 LINE",
"88 1350 LINE",
"88 1198 LINE",
"158 1198 LINE",
"158 0 LINE"
);
},
{
closed = 1;
nodes = (
"324 1198 LINE",
"610 1198 LINE",
"610 702 LINE",
"324 702 LINE"
);
}
);
width = 1214;
}
);
note = uniABDD;
unicode = ABDD;
},
{
glyphname = uniABDE;
lastChange = "2016-11-10 14:25:36 +0000";
layers = (
{
layerId = "EB118A11-D526-4C4A-9BF6-2DF904995F6F";
paths = (
{
closed = 1;
nodes = (
"195 16 OFFCURVE",
"278 50 OFFCURVE",
"348 102 CURVE SMOOTH",
"487 205 OFFCURVE",
"565 370 OFFCURVE",
"565 557 CURVE SMOOTH",
"565 760 OFFCURVE",
"471 991 OFFCURVE",
"299 1200 CURVE",
"750 1200 LINE",
"750 0 LINE",
"915 0 LINE",
"915 1200 LINE",
"1368 1200 LINE",
"1195 991 OFFCURVE",
"1098 757 OFFCURVE",
"1098 557 CURVE SMOOTH",
"1098 464 OFFCURVE",
"1117 377 OFFCURVE",
"1155 298 CURVE SMOOTH",
"1231 139 OFFCURVE",
"1374 32 OFFCURVE",
"1565 0 CURVE",
"1610 150 LINE",
"1391 197 OFFCURVE",
"1268 353 OFFCURVE",
"1268 584 CURVE SMOOTH",
"1268 775 OFFCURVE",
"1389 1015 OFFCURVE",
"1577 1200 CURVE",
"1577 1350 LINE",
"84 1350 LINE",
"84 1200 LINE",
"283 1020 OFFCURVE",
"399 789 OFFCURVE",
"399 584 CURVE SMOOTH",
"399 355 OFFCURVE",
"274 197 OFFCURVE",
"53 150 CURVE",
"100 0 LINE"
);
}
);
width = 1663;
}
);
note = uniABDE;
unicode = ABDE;
},
{
glyphname = uniABDF;
lastChange = "2016-11-10 14:25:36 +0000";
layers = (
{
layerId = "EB118A11-D526-4C4A-9BF6-2DF904995F6F";
paths = (
{
closed = 1;
nodes = (
"1019 -8 OFFCURVE",
"1239 62 OFFCURVE",
"1444 201 CURVE",
"1346 322 LINE",
"1180 203 OFFCURVE",
"998 143 OFFCURVE",
"801 143 CURVE SMOOTH",
"698 143 OFFCURVE",
"608 163 OFFCURVE",
"532 204 CURVE SMOOTH",
"380 285 OFFCURVE",
"295 444 OFFCURVE",
"295 659 CURVE SMOOTH",
"295 830 OFFCURVE",
"325 1011 OFFCURVE",
"385 1200 CURVE",
"592 1200 LINE",
"541 1035 OFFCURVE",
"516 904 OFFCURVE",
"516 807 CURVE SMOOTH",
"516 560 OFFCURVE",
"652 418 OFFCURVE",
"881 418 CURVE SMOOTH",
"992 418 OFFCURVE",
"1124 455 OFFCURVE",
"1239 528 CURVE",
"1147 653 LINE",
"1071 601 OFFCURVE",
"970 569 OFFCURVE",
"893 569 CURVE SMOOTH",
"757 569 OFFCURVE",
"680 656 OFFCURVE",
"680 805 CURVE SMOOTH",
"680 892 OFFCURVE",
"709 1024 OFFCURVE",
"768 1200 CURVE",
"1192 1200 LINE",
"1026 897 LINE",
"1176 844 LINE",
"1362 1200 LINE",
"1487 1200 LINE",
"1487 1350 LINE",
"76 1350 LINE",
"76 1200 LINE",
"203 1200 LINE",
"148 1013 OFFCURVE",
"121 832 OFFCURVE",
"121 659 CURVE SMOOTH",
"121 530 OFFCURVE",
"148 416 OFFCURVE",
"202 317 CURVE SMOOTH",
"310 118 OFFCURVE",
"533 -8 OFFCURVE",
"786 -8 CURVE SMOOTH"
);
}
);
width = 1563;
}
);
note = uniABDF;
unicode = ABDF;
},
{
glyphname = uniABE0;
lastChange = "2016-11-10 14:25:36 +0000";
layers = (
{
layerId = "EB118A11-D526-4C4A-9BF6-2DF904995F6F";
paths = (
{
closed = 1;
nodes = (
"991 -6 OFFCURVE",
"1050 9 OFFCURVE",
"1106 40 CURVE SMOOTH",
"1217 101 OFFCURVE",
"1286 215 OFFCURVE",
"1286 358 CURVE SMOOTH",
"1286 558 OFFCURVE",
"1158 706 OFFCURVE",
"899 791 CURVE",
"985 906 OFFCURVE",
"1126 1062 OFFCURVE",
"1321 1257 CURVE",
"1208 1362 LINE",
"1062 1210 OFFCURVE",
"956 1096 OFFCURVE",
"890 1021 CURVE SMOOTH",
"824 946 OFFCURVE",
"772 882 OFFCURVE",
"733 831 CURVE",
"617 856 OFFCURVE",
"457 868 OFFCURVE",
"252 868 CURVE",
"512 1284 LINE",
"365 1366 LINE",
"45 836 LINE",
"156 711 LINE",
"211 715 OFFCURVE",
"262 717 OFFCURVE",
"311 717 CURVE SMOOTH",
"437 717 OFFCURVE",
"549 710 OFFCURVE",
"647 696 CURVE",
"578 581 OFFCURVE",
"543 473 OFFCURVE",
"543 371 CURVE SMOOTH",
"543 290 OFFCURVE",
"559 221 OFFCURVE",
"592 166 CURVE SMOOTH",
"657 55 OFFCURVE",
"777 -6 OFFCURVE",
"930 -6 CURVE SMOOTH"
);
},
{
closed = 1;
nodes = (
"790 152 OFFCURVE",
"713 229 OFFCURVE",
"713 373 CURVE SMOOTH",
"713 462 OFFCURVE",
"745 557 OFFCURVE",
"809 657 CURVE",
"1016 598 OFFCURVE",
"1120 497 OFFCURVE",
"1120 354 CURVE SMOOTH",
"1120 230 OFFCURVE",
"1038 152 OFFCURVE",
"922 152 CURVE SMOOTH"
);
}
);
width = 1407;
}
);
note = uniABE0;
unicode = ABE0;
},
{
glyphname = uniABE1;
lastChange = "2016-11-10 14:25:36 +0000";
layers = (
{
layerId = "EB118A11-D526-4C4A-9BF6-2DF904995F6F";
paths = (
{
closed = 1;
nodes = (
"1171 0 LINE",
"1171 1198 LINE",
"1249 1198 LINE",
"1249 1350 LINE",
"86 1350 LINE",
"86 1198 LINE",
"156 1198 LINE",
"156 0 LINE"
);
},
{
closed = 1;
nodes = (
"328 1198 LINE",
"582 1198 LINE",
"582 143 LINE",
"328 143 LINE"
);
},
{
closed = 1;
nodes = (
"748 1198 LINE",
"1001 1198 LINE",
"1001 143 LINE",
"748 143 LINE"
);
}
);
width = 1339;
}
);
note = uniABE1;
unicode = ABE1;
},
{
glyphname = uniABE2;
lastChange = "2016-11-10 14:25:36 +0000";
layers = (
{
layerId = "EB118A11-D526-4C4A-9BF6-2DF904995F6F";
paths = (
{
closed = 1;
nodes = (
"403 48 OFFCURVE",
"596 248 OFFCURVE",
"596 524 CURVE",
"592 594 LINE",
"711 621 OFFCURVE",
"812 635 OFFCURVE",
"897 635 CURVE SMOOTH",
"1188 635 OFFCURVE",
"1307 544 OFFCURVE",
"1307 360 CURVE SMOOTH",
"1307 255 OFFCURVE",
"1246 184 OFFCURVE",
"1155 184 CURVE SMOOTH",
"1064 184 OFFCURVE",
"1016 238 OFFCURVE",
"995 365 CURVE",
"831 324 LINE",
"856 139 OFFCURVE",
"967 35 OFFCURVE",
"1155 35 CURVE SMOOTH",
"1214 35 OFFCURVE",
"1267 49 OFFCURVE",
"1316 76 CURVE SMOOTH",
"1412 130 OFFCURVE",
"1473 228 OFFCURVE",
"1473 367 CURVE SMOOTH",
"1473 646 OFFCURVE",
"1291 782 OFFCURVE",
"891 782 CURVE SMOOTH",
"798 782 OFFCURVE",
"688 768 OFFCURVE",
"559 739 CURVE",
"508 898 OFFCURVE",
"418 1052 OFFCURVE",
"287 1200 CURVE",
"1470 1200 LINE",
"1470 1350 LINE",
"76 1350 LINE",
"76 1200 LINE",
"291 1011 OFFCURVE",
"430 746 OFFCURVE",
"430 539 CURVE SMOOTH",
"430 327 OFFCURVE",
"294 195 OFFCURVE",
"45 160 CURVE",
"92 0 LINE"
);
}
);
width = 1538;
}
);
note = uniABE2;
unicode = ABE2;
},
{
glyphname = uniABE3;
lastChange = "2016-11-10 14:25:36 +0000";
layers = (
{
layerId = "EB118A11-D526-4C4A-9BF6-2DF904995F6F";
paths = (
{
closed = 1;
nodes = (
"385 1044 OFFCURVE",
"475 1123 OFFCURVE",
"475 1243 CURVE SMOOTH",
"475 1387 OFFCURVE",
"331 1558 OFFCURVE",
"55 1722 CURVE",
"-16 1610 LINE",
"67 1559 OFFCURVE",
"145 1513 OFFCURVE",
"190 1462 CURVE",
"106 1403 OFFCURVE",
"53 1340 OFFCURVE",
"53 1247 CURVE SMOOTH",
"53 1123 OFFCURVE",
"135 1044 OFFCURVE",
"262 1044 CURVE SMOOTH"
);
},
{
closed = 1;
nodes = (
"215 1163 OFFCURVE",
"182 1194 OFFCURVE",
"182 1247 CURVE SMOOTH",
"182 1310 OFFCURVE",
"220 1350 OFFCURVE",
"279 1386 CURVE",
"315 1354 OFFCURVE",
"338 1304 OFFCURVE",
"338 1253 CURVE SMOOTH",
"338 1198 OFFCURVE",
"299 1163 OFFCURVE",
"258 1163 CURVE SMOOTH"
);
}
);
width = 543;
}
);
note = uniABE3;
unicode = ABE3;
},
{
glyphname = uniABE4;
lastChange = "2016-11-10 14:25:36 +0000";
layers = (
{
layerId = "EB118A11-D526-4C4A-9BF6-2DF904995F6F";
paths = (
{
closed = 1;
nodes = (
"408 -4 LINE",
"408 1192 LINE",
"651 1195 OFFCURVE",
"778 1292 OFFCURVE",
"778 1475 CURVE SMOOTH",
"778 1634 OFFCURVE",
"671 1731 OFFCURVE",
"508 1731 CURVE SMOOTH",
"333 1731 OFFCURVE",
"233 1643 OFFCURVE",
"233 1460 CURVE SMOOTH",
"233 1350 LINE",
"39 1350 LINE",
"39 1192 LINE",
"233 1192 LINE",
"233 -4 LINE"
);
},
{
closed = 1;
nodes = (
"408 1460 LINE SMOOTH",
"408 1555 OFFCURVE",
"440 1585 OFFCURVE",
"508 1585 CURVE SMOOTH",
"573 1585 OFFCURVE",
"606 1551 OFFCURVE",
"606 1483 CURVE SMOOTH",
"606 1392 OFFCURVE",
"545 1350 OFFCURVE",
"408 1350 CURVE"
);
}
);
width = 838;
}
);
note = uniABE4;
unicode = ABE4;
},
{
glyphname = uniABE5;
lastChange = "2016-11-10 14:25:36 +0000";
layers = (
{
layerId = "EB118A11-D526-4C4A-9BF6-2DF904995F6F";
paths = (
{
closed = 1;
nodes = (
"-188 1624 LINE",
"-528 1915 LINE",
"-631 1782 LINE",
"-279 1513 LINE"
);
}
);
width = 0;
}
);
note = uniABE5;
unicode = ABE5;
},
{
glyphname = uniABE6;
lastChange = "2016-11-10 14:25:36 +0000";
layers = (
{
layerId = "EB118A11-D526-4C4A-9BF6-2DF904995F6F";
paths = (
{
closed = 1;
nodes = (
"467 846 OFFCURVE",
"586 955 OFFCURVE",
"586 1096 CURVE SMOOTH",
"586 1243 OFFCURVE",
"463 1356 OFFCURVE",
"303 1356 CURVE SMOOTH",
"155 1356 OFFCURVE",
"33 1243 OFFCURVE",
"33 1096 CURVE SMOOTH",
"33 955 OFFCURVE",
"151 846 OFFCURVE",
"303 846 CURVE SMOOTH"
);
},
{
closed = 1;
nodes = (
"234 977 OFFCURVE",
"182 1030 OFFCURVE",
"182 1102 CURVE SMOOTH",
"182 1171 OFFCURVE",
"238 1227 OFFCURVE",
"303 1227 CURVE SMOOTH",
"374 1227 OFFCURVE",
"430 1173 OFFCURVE",
"430 1102 CURVE SMOOTH",
"430 1027 OFFCURVE",
"378 977 OFFCURVE",
"303 977 CURVE SMOOTH"
);
}
);
width = 629;
}
);
note = uniABE6;
unicode = ABE6;
},
{
glyphname = uniABE7;
lastChange = "2016-11-10 14:25:36 +0000";
layers = (
{
layerId = "EB118A11-D526-4C4A-9BF6-2DF904995F6F";
paths = (
{
closed = 1;
nodes = (
"121 1043 LINE SMOOTH",
"241 1043 OFFCURVE",
"306 1077 OFFCURVE",
"341 1128 CURVE SMOOTH",
"376 1179 OFFCURVE",
"380 1244 OFFCURVE",
"380 1308 CURVE",
"541 1347 OFFCURVE",
"620 1411 OFFCURVE",
"620 1534 CURVE SMOOTH",
"620 1589 OFFCURVE",
"600 1637 OFFCURVE",
"565 1672 CURVE SMOOTH",
"530 1707 OFFCURVE",
"480 1728 OFFCURVE",
"423 1728 CURVE SMOOTH",
"294 1728 OFFCURVE",
"220 1655 OFFCURVE",
"220 1526 CURVE SMOOTH",
"220 1481 OFFCURVE",
"224 1454 OFFCURVE",
"235 1415 CURVE",
"83 1416 OFFCURVE",
"1 1513 OFFCURVE",
"-3 1722 CURVE",
"-140 1722 LINE",
"-133 1431 OFFCURVE",
"0 1300 OFFCURVE",
"243 1300 CURVE",
"240 1273 OFFCURVE",
"239 1245 OFFCURVE",
"224 1222 CURVE SMOOTH",
"208 1199 OFFCURVE",
"179 1184 OFFCURVE",
"124 1184 CURVE SMOOTH",
"40 1184 LINE",
"40 1043 LINE"
);
},
{
closed = 1;
nodes = (
"353 1467 OFFCURVE",
"349 1488 OFFCURVE",
"349 1521 CURVE SMOOTH",
"349 1576 OFFCURVE",
"374 1603 OFFCURVE",
"423 1603 CURVE SMOOTH",
"468 1603 OFFCURVE",
"491 1578 OFFCURVE",
"491 1528 CURVE SMOOTH",
"491 1480 OFFCURVE",
"452 1451 OFFCURVE",
"364 1431 CURVE"
);
}
);
width = 680;
}
);
note = uniABE7;
unicode = ABE7;
},
{
glyphname = uniABE8;
lastChange = "2016-11-10 14:25:36 +0000";
layers = (
{
layerId = "EB118A11-D526-4C4A-9BF6-2DF904995F6F";
paths = (
{
closed = 1;
nodes = (
"-690 -410 LINE",
"-694 -396 OFFCURVE",
"-696 -369 OFFCURVE",
"-696 -330 CURVE SMOOTH",
"-696 -263 OFFCURVE",
"-674 -233 OFFCURVE",
"-614 -233 CURVE SMOOTH",
"-565 -233 OFFCURVE",
"-526 -264 OFFCURVE",
"-526 -315 CURVE SMOOTH",
"-526 -410 LINE",
"-408 -410 LINE",
"-408 -315 LINE SMOOTH",
"-408 -264 OFFCURVE",
"-369 -233 OFFCURVE",
"-326 -233 CURVE SMOOTH",
"-263 -233 OFFCURVE",
"-242 -263 OFFCURVE",
"-242 -330 CURVE",
"-245 -383 LINE",
"-248 -410 LINE",
"-135 -410 LINE",
"-130 -397 OFFCURVE",
"-127 -368 OFFCURVE",
"-127 -324 CURVE SMOOTH",
"-127 -189 OFFCURVE",
"-191 -121 OFFCURVE",
"-319 -121 CURVE SMOOTH",
"-382 -121 OFFCURVE",
"-436 -150 OFFCURVE",
"-467 -201 CURVE",
"-498 -148 OFFCURVE",
"-549 -121 OFFCURVE",
"-621 -121 CURVE SMOOTH",
"-744 -121 OFFCURVE",
"-811 -188 OFFCURVE",
"-811 -324 CURVE SMOOTH",
"-811 -344 OFFCURVE",
"-808 -373 OFFCURVE",
"-803 -410 CURVE"
);
}
);
width = 0;
}
);
note = uniABE8;
unicode = ABE8;
},
{
glyphname = uniABE9;
lastChange = "2016-11-10 14:25:36 +0000";
layers = (
{
layerId = "EB118A11-D526-4C4A-9BF6-2DF904995F6F";
paths = (
{
closed = 1;
nodes = (
"-137 1409 LINE",
"-137 1573 LINE",
"47 1578 OFFCURVE",
"158 1673 OFFCURVE",
"158 1810 CURVE SMOOTH",
"158 1927 OFFCURVE",
"64 2015 OFFCURVE",
"-61 2015 CURVE SMOOTH",
"-202 2015 OFFCURVE",
"-281 1937 OFFCURVE",
"-281 1796 CURVE SMOOTH",
"-281 1698 LINE",
"-328 1701 OFFCURVE",
"-367 1714 OFFCURVE",
"-396 1737 CURVE SMOOTH",
"-455 1783 OFFCURVE",
"-482 1855 OFFCURVE",
"-485 2007 CURVE",
"-627 2007 LINE",
"-627 1708 OFFCURVE",
"-508 1580 OFFCURVE",
"-281 1573 CURVE",
"-281 1409 LINE"
);
},
{
closed = 1;
nodes = (
"-137 1790 LINE SMOOTH",
"-137 1857 OFFCURVE",
"-116 1888 OFFCURVE",
"-57 1888 CURVE SMOOTH",
"-11 1888 OFFCURVE",
"12 1862 OFFCURVE",
"12 1810 CURVE SMOOTH",
"12 1733 OFFCURVE",
"-36 1701 OFFCURVE",
"-137 1698 CURVE"
);
}
);
width = 0;
}
);
note = uniABE9;
unicode = ABE9;
},
{
glyphname = uniABEA;
lastChange = "2016-11-10 14:15:24 +0000";
layers = (
{
layerId = "EB118A11-D526-4C4A-9BF6-2DF904995F6F";
paths = (
{
closed = 1;
nodes = (
"-8 1572 OFFCURVE",
"106 1743 OFFCURVE",
"106 1871 CURVE SMOOTH",
"106 1980 OFFCURVE",
"13 2065 OFFCURVE",
"-103 2065 CURVE SMOOTH",
"-220 2065 OFFCURVE",
"-310 1979 OFFCURVE",
"-310 1867 CURVE SMOOTH",
"-310 1783 OFFCURVE",
"-233 1680 OFFCURVE",
"-142 1641 CURVE",
"-177 1598 OFFCURVE",
"-230 1549 OFFCURVE",
"-302 1492 CURVE",
"-212 1396 LINE"
);
},
{
closed = 1;
nodes = (
"-117 1760 OFFCURVE",
"-146 1784 OFFCURVE",
"-159 1802 CURVE SMOOTH",
"-172 1820 OFFCURVE",
"-179 1839 OFFCURVE",
"-179 1858 CURVE SMOOTH",
"-179 1903 OFFCURVE",
"-148 1944 OFFCURVE",
"-101 1944 CURVE SMOOTH",
"-54 1944 OFFCURVE",
"-21 1901 OFFCURVE",
"-21 1850 CURVE SMOOTH",
"-21 1809 OFFCURVE",
"-38 1768 OFFCURVE",
"-71 1729 CURVE"
);
}
);
width = 0;
}
);
note = uniABEA;
unicode = ABEA;
},
{
glyphname = uniABEB;
lastChange = "2016-11-10 14:25:36 +0000";
layers = (
{
layerId = "EB118A11-D526-4C4A-9BF6-2DF904995F6F";
paths = (
{
closed = 1;
nodes = (
"344 -61 LINE",
"344 1409 LINE",
"176 1409 LINE",
"176 -61 LINE"
);
},
{
closed = 1;
nodes = (
"750 -61 LINE",
"750 1409 LINE",
"584 1409 LINE",
"584 -61 LINE"
);
}
);
width = 913;
}
);
note = uniABEB;
unicode = ABEB;
},
{
glyphname = uniABEC;
lastChange = "2016-11-10 14:25:36 +0000";
layers = (
{
layerId = "EB118A11-D526-4C4A-9BF6-2DF904995F6F";
paths = (
{
closed = 1;
nodes = (
"338 154 OFFCURVE",
"393 212 OFFCURVE",
"393 287 CURVE SMOOTH",
"393 358 OFFCURVE",
"337 416 OFFCURVE",
"262 416 CURVE SMOOTH",
"195 416 OFFCURVE",
"137 359 OFFCURVE",
"137 287 CURVE SMOOTH",
"137 212 OFFCURVE",
"194 154 OFFCURVE",
"262 154 CURVE SMOOTH"
);
}
);
width = 516;
}
);
note = uniABEC;
unicode = ABEC;
},
{
glyphname = uniABED;
lastChange = "2016-11-10 14:15:24 +0000";
layers = (
{
layerId = "EB118A11-D526-4C4A-9BF6-2DF904995F6F";
paths = (
{
closed = 1;
nodes = (
"1329 -369 LINE",
"1329 -223 LINE",
"-1180 -223 LINE",
"-1180 -369 LINE"
);
}
);
width = 0;
}
);
note = uniABED;
unicode = ABED;
},
{
glyphname = uniABF0;
lastChange = "2016-11-10 14:25:36 +0000";
layers = (
{
layerId = "EB118A11-D526-4C4A-9BF6-2DF904995F6F";
paths = (
{
closed = 1;
nodes = (
"754 -25 OFFCURVE",
"855 3 OFFCURVE",
"941 59 CURVE SMOOTH",
"1113 171 OFFCURVE",
"1208 387 OFFCURVE",
"1208 659 CURVE SMOOTH",
"1208 1110 OFFCURVE",
"1000 1372 OFFCURVE",
"639 1372 CURVE SMOOTH",
"300 1372 OFFCURVE",
"90 1098 OFFCURVE",
"90 659 CURVE SMOOTH",
"90 239 OFFCURVE",
"303 -25 OFFCURVE",
"639 -25 CURVE SMOOTH"
);
},
{
closed = 1;
nodes = (
"387 129 OFFCURVE",
"256 315 OFFCURVE",
"256 670 CURVE SMOOTH",
"256 1027 OFFCURVE",
"391 1219 OFFCURVE",
"639 1219 CURVE SMOOTH",
"903 1219 OFFCURVE",
"1030 1051 OFFCURVE",
"1030 670 CURVE SMOOTH",
"1030 290 OFFCURVE",
"904 129 OFFCURVE",
"639 129 CURVE SMOOTH"
);
}
);
width = 1313;
}
);
note = uniABF0;
unicode = ABF0;
},
{
glyphname = uniABF1;
lastChange = "2016-11-10 14:25:36 +0000";
layers = (
{
layerId = "EB118A11-D526-4C4A-9BF6-2DF904995F6F";
paths = (
{
closed = 1;
nodes = (
"779 -29 OFFCURVE",
"899 76 OFFCURVE",
"899 236 CURVE SMOOTH",
"899 381 OFFCURVE",
"827 481 OFFCURVE",
"592 602 CURVE SMOOTH",
"340 727 OFFCURVE",
"250 834 OFFCURVE",
"250 965 CURVE SMOOTH",
"250 1122 OFFCURVE",
"381 1217 OFFCURVE",
"606 1217 CURVE SMOOTH",
"826 1217 OFFCURVE",
"936 1141 OFFCURVE",
"936 989 CURVE SMOOTH",
"936 893 OFFCURVE",
"888 844 OFFCURVE",
"807 844 CURVE SMOOTH",
"758 844 OFFCURVE",
"701 883 OFFCURVE",
"680 924 CURVE",
"545 836 LINE",
"604 744 OFFCURVE",
"703 688 OFFCURVE",
"811 688 CURVE SMOOTH",
"1002 688 OFFCURVE",
"1104 802 OFFCURVE",
"1104 991 CURVE SMOOTH",
"1104 1060 OFFCURVE",
"1083 1124 OFFCURVE",
"1041 1181 CURVE SMOOTH",
"957 1295 OFFCURVE",
"799 1362 OFFCURVE",
"604 1362 CURVE SMOOTH",
"283 1362 OFFCURVE",
"84 1208 OFFCURVE",
"84 965 CURVE SMOOTH",
"84 901 OFFCURVE",
"97 845 OFFCURVE",
"123 796 CURVE SMOOTH",
"175 698 OFFCURVE",
"246 630 OFFCURVE",
"475 506 CURVE SMOOTH",
"569 455 OFFCURVE",
"636 409 OFFCURVE",
"677 370 CURVE SMOOTH",
"717 330 OFFCURVE",
"737 288 OFFCURVE",
"737 244 CURVE SMOOTH",
"737 164 OFFCURVE",
"683 115 OFFCURVE",
"600 115 CURVE SMOOTH",
"535 115 OFFCURVE",
"456 162 OFFCURVE",
"408 233 CURVE",
"274 152 LINE",
"354 36 OFFCURVE",
"471 -29 OFFCURVE",
"606 -29 CURVE SMOOTH"
);
}
);
width = 1196;
}
);
note = uniABF1;
unicode = ABF1;
},
{
glyphname = uniABF2;
lastChange = "2016-11-10 14:25:36 +0000";
layers = (
{
layerId = "EB118A11-D526-4C4A-9BF6-2DF904995F6F";
paths = (
{
closed = 1;
nodes = (
"781 -18 OFFCURVE",
"901 89 OFFCURVE",
"901 238 CURVE SMOOTH",
"901 303 OFFCURVE",
"874 363 OFFCURVE",
"821 418 CURVE",
"994 413 OFFCURVE",
"1087 319 OFFCURVE",
"1087 164 CURVE SMOOTH",
"1087 123 OFFCURVE",
"1081 84 OFFCURVE",
"1069 45 CURVE",
"1233 12 LINE",
"1245 59 OFFCURVE",
"1251 106 OFFCURVE",
"1251 154 CURVE SMOOTH",
"1251 401 OFFCURVE",
"1080 543 OFFCURVE",
"776 543 CURVE SMOOTH",
"742 543 LINE",
"711 541 LINE",
"702 541 LINE",
"690 539 LINE",
"590 590 LINE SMOOTH",
"337 717 OFFCURVE",
"242 829 OFFCURVE",
"242 958 CURVE SMOOTH",
"242 1126 OFFCURVE",
"370 1217 OFFCURVE",
"602 1217 CURVE SMOOTH",
"818 1217 OFFCURVE",
"936 1141 OFFCURVE",
"936 989 CURVE SMOOTH",
"936 893 OFFCURVE",
"888 844 OFFCURVE",
"807 844 CURVE SMOOTH",
"758 844 OFFCURVE",
"701 883 OFFCURVE",
"680 924 CURVE",
"545 836 LINE",
"596 748 OFFCURVE",
"699 688 OFFCURVE",
"811 688 CURVE SMOOTH",
"998 688 OFFCURVE",
"1102 799 OFFCURVE",
"1102 991 CURVE SMOOTH",
"1102 1061 OFFCURVE",
"1081 1124 OFFCURVE",
"1039 1181 CURVE SMOOTH",
"955 1294 OFFCURVE",
"795 1362 OFFCURVE",
"600 1362 CURVE SMOOTH",
"272 1362 OFFCURVE",
"74 1211 OFFCURVE",
"74 958 CURVE SMOOTH",
"74 895 OFFCURVE",
"88 839 OFFCURVE",
"115 790 CURVE SMOOTH",
"169 691 OFFCURVE",
"253 615 OFFCURVE",
"457 504 CURVE",
"485 485 LINE",
"504 475 LINE",
"396 414 OFFCURVE",
"334 322 OFFCURVE",
"334 225 CURVE SMOOTH",
"334 76 OFFCURVE",
"444 -18 OFFCURVE",
"616 -18 CURVE SMOOTH"
);
},
{
closed = 1;
nodes = (
"536 127 OFFCURVE",
"498 171 OFFCURVE",
"498 227 CURVE SMOOTH",
"498 307 OFFCURVE",
"561 370 OFFCURVE",
"645 391 CURVE",
"702 356 OFFCURVE",
"731 303 OFFCURVE",
"731 233 CURVE SMOOTH",
"731 168 OFFCURVE",
"687 127 OFFCURVE",
"616 127 CURVE SMOOTH"
);
}
);
width = 1303;
}
);
note = uniABF2;
unicode = ABF2;
},
{
glyphname = uniABF3;
lastChange = "2016-11-10 14:25:36 +0000";
layers = (
{
layerId = "EB118A11-D526-4C4A-9BF6-2DF904995F6F";
paths = (
{
closed = 1;
nodes = (
"777 -18 OFFCURVE",
"885 74 OFFCURVE",
"885 229 CURVE SMOOTH",
"885 296 OFFCURVE",
"860 357 OFFCURVE",
"811 412 CURVE",
"847 423 OFFCURVE",
"892 428 OFFCURVE",
"946 428 CURVE SMOOTH",
"988 428 OFFCURVE",
"1030 421 OFFCURVE",
"1073 406 CURVE",
"1016 343 OFFCURVE",
"987 276 OFFCURVE",
"987 205 CURVE SMOOTH",
"987 86 OFFCURVE",
"1075 6 OFFCURVE",
"1196 6 CURVE SMOOTH",
"1328 6 OFFCURVE",
"1415 84 OFFCURVE",
"1415 209 CURVE SMOOTH",
"1415 289 OFFCURVE",
"1388 347 OFFCURVE",
"1319 418 CURVE",
"1346 433 OFFCURVE",
"1373 440 OFFCURVE",
"1401 440 CURVE SMOOTH",
"1476 440 OFFCURVE",
"1520 413 OFFCURVE",
"1575 346 CURVE",
"1686 436 LINE",
"1607 535 OFFCURVE",
"1522 569 OFFCURVE",
"1407 569 CURVE SMOOTH",
"1328 569 OFFCURVE",
"1266 543 OFFCURVE",
"1194 498 CURVE",
"1117 535 OFFCURVE",
"1025 553 OFFCURVE",
"920 553 CURVE SMOOTH",
"844 553 OFFCURVE",
"766 546 OFFCURVE",
"686 532 CURVE",
"598 580 LINE SMOOTH",
"487 639 OFFCURVE",
"412 685 OFFCURVE",
"372 718 CURVE SMOOTH",
"291 784 OFFCURVE",
"244 859 OFFCURVE",
"244 958 CURVE SMOOTH",
"244 1127 OFFCURVE",
"371 1217 OFFCURVE",
"600 1217 CURVE SMOOTH",
"817 1217 OFFCURVE",
"936 1141 OFFCURVE",
"936 989 CURVE SMOOTH",
"936 892 OFFCURVE",
"890 844 OFFCURVE",
"809 844 CURVE SMOOTH",
"760 844 OFFCURVE",
"703 881 OFFCURVE",
"678 924 CURVE",
"547 836 LINE",
"599 745 OFFCURVE",
"698 688 OFFCURVE",
"813 688 CURVE SMOOTH",
"1001 688 OFFCURVE",
"1102 800 OFFCURVE",
"1102 991 CURVE SMOOTH",
"1102 1062 OFFCURVE",
"1081 1125 OFFCURVE",
"1039 1182 CURVE SMOOTH",
"954 1294 OFFCURVE",
"793 1362 OFFCURVE",
"598 1362 CURVE SMOOTH",
"273 1362 OFFCURVE",
"74 1211 OFFCURVE",
"74 958 CURVE SMOOTH",
"74 891 OFFCURVE",
"88 832 OFFCURVE",
"115 781 CURVE SMOOTH",
"170 677 OFFCURVE",
"249 603 OFFCURVE",
"504 467 CURVE",
"391 406 OFFCURVE",
"334 325 OFFCURVE",
"334 225 CURVE SMOOTH",
"334 77 OFFCURVE",
"446 -18 OFFCURVE",
"614 -18 CURVE SMOOTH"
);
},
{
closed = 1;
nodes = (
"538 127 OFFCURVE",
"500 171 OFFCURVE",
"500 227 CURVE SMOOTH",
"500 306 OFFCURVE",
"562 370 OFFCURVE",
"643 391 CURVE",
"698 350 OFFCURVE",
"725 297 OFFCURVE",
"725 233 CURVE SMOOTH",
"725 158 OFFCURVE",
"674 127 OFFCURVE",
"614 127 CURVE SMOOTH"
);
},
{
closed = 1;
nodes = (
"1151 129 OFFCURVE",
"1126 165 OFFCURVE",
"1126 221 CURVE SMOOTH",
"1126 278 OFFCURVE",
"1151 326 OFFCURVE",
"1202 365 CURVE",
"1250 325 OFFCURVE",
"1274 278 OFFCURVE",
"1274 223 CURVE SMOOTH",
"1274 160 OFFCURVE",
"1248 129 OFFCURVE",
"1196 129 CURVE SMOOTH"
);
}
);
width = 1729;
}
);
note = uniABF3;
unicode = ABF3;
},
{
glyphname = uniABF4;
lastChange = "2016-11-10 14:25:36 +0000";
layers = (
{
layerId = "EB118A11-D526-4C4A-9BF6-2DF904995F6F";
paths = (
{
closed = 1;
nodes = (
"689 -25 OFFCURVE",
"776 -9 OFFCURVE",
"851 24 CURVE SMOOTH",
"1002 88 OFFCURVE",
"1090 211 OFFCURVE",
"1090 354 CURVE SMOOTH",
"1090 541 OFFCURVE",
"988 653 OFFCURVE",
"811 653 CURVE SMOOTH",
"694 653 OFFCURVE",
"602 605 OFFCURVE",
"537 508 CURVE",
"670 428 LINE",
"705 485 OFFCURVE",
"744 510 OFFCURVE",
"807 510 CURVE SMOOTH",
"886 510 OFFCURVE",
"926 459 OFFCURVE",
"926 356 CURVE SMOOTH",
"926 212 OFFCURVE",
"802 123 OFFCURVE",
"594 123 CURVE SMOOTH",
"366 123 OFFCURVE",
"242 216 OFFCURVE",
"242 385 CURVE SMOOTH",
"242 430 OFFCURVE",
"255 473 OFFCURVE",
"281 512 CURVE SMOOTH",
"332 591 OFFCURVE",
"409 652 OFFCURVE",
"592 741 CURVE SMOOTH",
"702 795 OFFCURVE",
"776 837 OFFCURVE",
"814 866 CURVE SMOOTH",
"889 925 OFFCURVE",
"932 992 OFFCURVE",
"932 1085 CURVE SMOOTH",
"932 1249 OFFCURVE",
"806 1362 OFFCURVE",
"633 1362 CURVE SMOOTH",
"571 1362 OFFCURVE",
"514 1351 OFFCURVE",
"463 1328 CURVE SMOOTH",
"360 1282 OFFCURVE",
"287 1194 OFFCURVE",
"266 1061 CURVE",
"424 1026 LINE",
"437 1147 OFFCURVE",
"517 1217 OFFCURVE",
"633 1217 CURVE SMOOTH",
"714 1217 OFFCURVE",
"770 1164 OFFCURVE",
"770 1087 CURVE SMOOTH",
"770 1052 OFFCURVE",
"754 1019 OFFCURVE",
"723 988 CURVE SMOOTH",
"692 957 OFFCURVE",
"630 919 OFFCURVE",
"539 874 CURVE SMOOTH",
"413 815 OFFCURVE",
"320 763 OFFCURVE",
"260 717 CURVE SMOOTH",
"139 625 OFFCURVE",
"80 521 OFFCURVE",
"80 385 CURVE SMOOTH",
"80 128 OFFCURVE",
"269 -25 OFFCURVE",
"592 -25 CURVE SMOOTH"
);
}
);
width = 1174;
}
);
note = uniABF4;
unicode = ABF4;
},
{
glyphname = uniABF5;
lastChange = "2016-11-10 14:25:36 +0000";
layers = (
{
layerId = "EB118A11-D526-4C4A-9BF6-2DF904995F6F";
paths = (
{
closed = 1;
nodes = (
"635 0 LINE",
"635 463 LINE",
"830 472 OFFCURVE",
"942 559 OFFCURVE",
"942 715 CURVE SMOOTH",
"942 854 OFFCURVE",
"858 942 OFFCURVE",
"715 942 CURVE SMOOTH",
"543 942 OFFCURVE",
"465 855 OFFCURVE",
"465 670 CURVE SMOOTH",
"465 618 LINE",
"324 646 OFFCURVE",
"242 744 OFFCURVE",
"242 901 CURVE SMOOTH",
"242 1106 OFFCURVE",
"378 1202 OFFCURVE",
"649 1202 CURVE SMOOTH",
"886 1202 OFFCURVE",
"1034 1124 OFFCURVE",
"1034 999 CURVE SMOOTH",
"1034 956 OFFCURVE",
"1017 916 OFFCURVE",
"983 879 CURVE",
"1114 756 LINE",
"1175 826 OFFCURVE",
"1206 900 OFFCURVE",
"1206 977 CURVE SMOOTH",
"1206 1200 OFFCURVE",
"980 1356 OFFCURVE",
"653 1356 CURVE SMOOTH",
"272 1356 OFFCURVE",
"66 1196 OFFCURVE",
"66 899 CURVE SMOOTH",
"66 675 OFFCURVE",
"216 510 OFFCURVE",
"465 471 CURVE",
"465 0 LINE"
);
},
{
closed = 1;
nodes = (
"633 681 OFFCURVE",
"636 724 OFFCURVE",
"641 744 CURVE SMOOTH",
"651 784 OFFCURVE",
"672 801 OFFCURVE",
"717 801 CURVE SMOOTH",
"761 801 OFFCURVE",
"784 767 OFFCURVE",
"784 719 CURVE SMOOTH",
"784 692 OFFCURVE",
"779 672 OFFCURVE",
"769 659 CURVE SMOOTH",
"749 632 OFFCURVE",
"709 616 OFFCURVE",
"633 616 CURVE"
);
}
);
width = 1264;
}
);
note = uniABF5;
unicode = ABF5;
},
{
glyphname = uniABF6;
lastChange = "2016-11-10 14:25:36 +0000";
layers = (
{
layerId = "EB118A11-D526-4C4A-9BF6-2DF904995F6F";
paths = (
{
closed = 1;
nodes = (
"639 0 LINE",
"866 177 OFFCURVE",
"1070 334 OFFCURVE",
"1249 469 CURVE",
"1157 586 LINE",
"635 178 LINE",
"635 463 LINE",
"832 474 OFFCURVE",
"946 563 OFFCURVE",
"946 715 CURVE SMOOTH",
"946 854 OFFCURVE",
"862 942 OFFCURVE",
"719 942 CURVE SMOOTH",
"547 942 OFFCURVE",
"471 857 OFFCURVE",
"471 670 CURVE SMOOTH",
"471 618 LINE",
"328 649 OFFCURVE",
"246 756 OFFCURVE",
"246 909 CURVE SMOOTH",
"246 1104 OFFCURVE",
"382 1202 OFFCURVE",
"653 1202 CURVE SMOOTH",
"890 1202 OFFCURVE",
"1038 1124 OFFCURVE",
"1038 999 CURVE SMOOTH",
"1038 953 OFFCURVE",
"1022 913 OFFCURVE",
"989 879 CURVE",
"1118 756 LINE",
"1179 826 OFFCURVE",
"1210 900 OFFCURVE",
"1210 977 CURVE SMOOTH",
"1210 1200 OFFCURVE",
"984 1356 OFFCURVE",
"657 1356 CURVE SMOOTH",
"280 1356 OFFCURVE",
"70 1198 OFFCURVE",
"70 909 CURVE SMOOTH",
"70 676 OFFCURVE",
"218 508 OFFCURVE",
"471 471 CURVE",
"471 0 LINE"
);
},
{
closed = 1;
nodes = (
"637 681 OFFCURVE",
"640 724 OFFCURVE",
"645 744 CURVE SMOOTH",
"655 784 OFFCURVE",
"676 801 OFFCURVE",
"721 801 CURVE SMOOTH",
"765 801 OFFCURVE",
"788 767 OFFCURVE",
"788 719 CURVE SMOOTH",
"788 692 OFFCURVE",
"783 672 OFFCURVE",
"773 659 CURVE SMOOTH",
"753 632 OFFCURVE",
"713 616 OFFCURVE",
"637 616 CURVE"
);
}
);
width = 1303;
}
);
note = uniABF6;
unicode = ABF6;
},
{
glyphname = uniABF7;
lastChange = "2016-11-10 14:25:36 +0000";
layers = (
{
layerId = "EB118A11-D526-4C4A-9BF6-2DF904995F6F";
paths = (
{
closed = 1;
nodes = (
"1206 -13 OFFCURVE",
"1329 105 OFFCURVE",
"1329 289 CURVE SMOOTH",
"1329 406 OFFCURVE",
"1301 571 OFFCURVE",
"1245 784 CURVE",
"1462 900 OFFCURVE",
"1536 995 OFFCURVE",
"1536 1130 CURVE SMOOTH",
"1536 1285 OFFCURVE",
"1420 1391 OFFCURVE",
"1257 1391 CURVE SMOOTH",
"1105 1391 OFFCURVE",
"995 1289 OFFCURVE",
"995 1149 CURVE SMOOTH",
"995 1065 OFFCURVE",
"1024 970 OFFCURVE",
"1057 862 CURVE",
"750 737 LINE",
"702 1145 OFFCURVE",
"571 1368 OFFCURVE",
"375 1368 CURVE SMOOTH",
"322 1368 OFFCURVE",
"273 1357 OFFCURVE",
"228 1335 CURVE SMOOTH",
"139 1290 OFFCURVE",
"86 1207 OFFCURVE",
"86 1126 CURVE SMOOTH",
"86 1083 OFFCURVE",
"94 1040 OFFCURVE",
"109 999 CURVE",
"270 1057 LINE",
"261 1083 OFFCURVE",
"256 1106 OFFCURVE",
"256 1126 CURVE SMOOTH",
"256 1185 OFFCURVE",
"302 1223 OFFCURVE",
"367 1223 CURVE SMOOTH",
"420 1223 OFFCURVE",
"465 1174 OFFCURVE",
"502 1077 CURVE SMOOTH",
"539 979 OFFCURVE",
"565 845 OFFCURVE",
"582 674 CURVE",
"267 545 OFFCURVE",
"147 420 OFFCURVE",
"147 260 CURVE SMOOTH",
"147 101 OFFCURVE",
"274 -14 OFFCURVE",
"434 -14 CURVE SMOOTH",
"649 -14 OFFCURVE",
"766 147 OFFCURVE",
"766 442 CURVE",
"762 578 LINE",
"847 609 OFFCURVE",
"961 654 OFFCURVE",
"1104 713 CURVE",
"1147 570 OFFCURVE",
"1169 442 OFFCURVE",
"1169 328 CURVE SMOOTH",
"1169 201 OFFCURVE",
"1101 143 OFFCURVE",
"948 127 CURVE",
"989 -25 LINE"
);
},
{
closed = 1;
nodes = (
"358 131 OFFCURVE",
"315 185 OFFCURVE",
"315 256 CURVE SMOOTH",
"315 299 OFFCURVE",
"336 340 OFFCURVE",
"378 379 CURVE SMOOTH",
"419 418 OFFCURVE",
"491 462 OFFCURVE",
"594 510 CURVE",
"596 474 LINE",
"596 442 LINE SMOOTH",
"596 245 OFFCURVE",
"538 131 OFFCURVE",
"434 131 CURVE SMOOTH"
);
},
{
closed = 1;
nodes = (
"1167 1021 OFFCURVE",
"1151 1092 OFFCURVE",
"1151 1143 CURVE SMOOTH",
"1151 1212 OFFCURVE",
"1197 1257 OFFCURVE",
"1266 1257 CURVE SMOOTH",
"1330 1257 OFFCURVE",
"1372 1210 OFFCURVE",
"1372 1145 CURVE SMOOTH",
"1372 1064 OFFCURVE",
"1305 983 OFFCURVE",
"1198 928 CURVE"
);
}
);
width = 1614;
}
);
note = uniABF7;
unicode = ABF7;
},
{
glyphname = uniABF8;
lastChange = "2016-11-10 14:25:36 +0000";
layers = (
{
layerId = "EB118A11-D526-4C4A-9BF6-2DF904995F6F";
paths = (
{
closed = 1;
nodes = (
"545 -12 OFFCURVE",
"641 76 OFFCURVE",
"641 211 CURVE SMOOTH",
"641 463 LINE",
"836 472 OFFCURVE",
"948 559 OFFCURVE",
"948 715 CURVE SMOOTH",
"948 854 OFFCURVE",
"864 942 OFFCURVE",
"721 942 CURVE SMOOTH",
"549 942 OFFCURVE",
"471 855 OFFCURVE",
"471 670 CURVE SMOOTH",
"471 618 LINE",
"328 649 OFFCURVE",
"246 758 OFFCURVE",
"246 909 CURVE SMOOTH",
"246 1104 OFFCURVE",
"382 1202 OFFCURVE",
"655 1202 CURVE SMOOTH",
"894 1202 OFFCURVE",
"1040 1124 OFFCURVE",
"1040 999 CURVE SMOOTH",
"1040 956 OFFCURVE",
"1023 916 OFFCURVE",
"989 879 CURVE",
"1120 756 LINE",
"1181 826 OFFCURVE",
"1212 900 OFFCURVE",
"1212 977 CURVE SMOOTH",
"1212 1200 OFFCURVE",
"986 1356 OFFCURVE",
"659 1356 CURVE SMOOTH",
"282 1356 OFFCURVE",
"72 1198 OFFCURVE",
"72 909 CURVE SMOOTH",
"72 676 OFFCURVE",
"220 508 OFFCURVE",
"471 471 CURVE",
"471 227 LINE SMOOTH",
"471 166 OFFCURVE",
"444 135 OFFCURVE",
"391 135 CURVE SMOOTH",
"366 135 OFFCURVE",
"344 143 OFFCURVE",
"327 158 CURVE SMOOTH",
"309 173 OFFCURVE",
"283 207 OFFCURVE",
"250 260 CURVE",
"125 168 LINE",
"206 39 OFFCURVE",
"282 -12 OFFCURVE",
"406 -12 CURVE SMOOTH"
);
},
{
closed = 1;
nodes = (
"639 681 OFFCURVE",
"642 724 OFFCURVE",
"647 744 CURVE SMOOTH",
"657 784 OFFCURVE",
"678 801 OFFCURVE",
"723 801 CURVE SMOOTH",
"766 801 OFFCURVE",
"791 768 OFFCURVE",
"791 719 CURVE SMOOTH",
"791 692 OFFCURVE",
"786 672 OFFCURVE",
"776 659 CURVE SMOOTH",
"756 633 OFFCURVE",
"714 616 OFFCURVE",
"639 616 CURVE"
);
}
);
width = 1280;
}
);
note = uniABF8;
unicode = ABF8;
},
{
glyphname = uniABF9;
lastChange = "2016-11-10 14:25:36 +0000";
layers = (
{
layerId = "EB118A11-D526-4C4A-9BF6-2DF904995F6F";
paths = (
{
closed = 1;
nodes = (
"542 -12 OFFCURVE",
"639 78 OFFCURVE",
"639 219 CURVE SMOOTH",
"639 309 LINE",
"1024 309 LINE",
"1024 432 LINE",
"639 432 LINE",
"639 522 LINE",
"847 535 OFFCURVE",
"952 606 OFFCURVE",
"952 745 CURVE SMOOTH",
"952 880 OFFCURVE",
"866 973 OFFCURVE",
"725 973 CURVE SMOOTH",
"562 973 OFFCURVE",
"481 882 OFFCURVE",
"481 700 CURVE SMOOTH",
"481 647 LINE",
"327 680 OFFCURVE",
"250 773 OFFCURVE",
"250 926 CURVE SMOOTH",
"250 1105 OFFCURVE",
"400 1210 OFFCURVE",
"659 1210 CURVE SMOOTH",
"896 1210 OFFCURVE",
"1044 1127 OFFCURVE",
"1044 999 CURVE SMOOTH",
"1044 954 OFFCURVE",
"1029 910 OFFCURVE",
"999 868 CURVE",
"1141 762 LINE",
"1192 821 OFFCURVE",
"1217 893 OFFCURVE",
"1217 977 CURVE SMOOTH",
"1217 1200 OFFCURVE",
"991 1356 OFFCURVE",
"664 1356 CURVE SMOOTH",
"289 1356 OFFCURVE",
"76 1199 OFFCURVE",
"76 926 CURVE SMOOTH",
"76 699 OFFCURVE",
"212 564 OFFCURVE",
"485 522 CURVE",
"485 432 LINE",
"446 432 LINE SMOOTH",
"255 432 OFFCURVE",
"160 357 OFFCURVE",
"160 207 CURVE SMOOTH",
"160 76 OFFCURVE",
"257 -12 OFFCURVE",
"393 -12 CURVE SMOOTH"
);
},
{
closed = 1;
nodes = (
"345 119 OFFCURVE",
"319 152 OFFCURVE",
"319 217 CURVE SMOOTH",
"319 281 OFFCURVE",
"353 311 OFFCURVE",
"485 311 CURVE",
"485 223 LINE SMOOTH",
"485 154 OFFCURVE",
"456 119 OFFCURVE",
"397 119 CURVE SMOOTH"
);
},
{
closed = 1;
nodes = (
"633 721 OFFCURVE",
"640 771 OFFCURVE",
"653 795 CURVE SMOOTH",
"666 819 OFFCURVE",
"691 831 OFFCURVE",
"727 831 CURVE SMOOTH",
"768 831 OFFCURVE",
"795 799 OFFCURVE",
"795 750 CURVE SMOOTH",
"795 677 OFFCURVE",
"738 645 OFFCURVE",
"633 645 CURVE"
);
}
);
width = 1300;
}
);
note = uniABF9;
unicode = ABF9;
},
{
glyphname = uniABED.alt1;
lastChange = "2016-11-10 14:25:40 +0000";
layers = (
{
layerId = "EB118A11-D526-4C4A-9BF6-2DF904995F6F";
paths = (
{
closed = 1;
nodes = (
"1750 -369 LINE",
"1750 -223 LINE",
"-1450 -223 LINE",
"-1450 -369 LINE"
);
}
);
width = 0;
}
);
note = uniABED.alt1;
},
{
glyphname = uniABED.alt2;
lastChange = "2016-11-10 14:25:40 +0000";
layers = (
{
layerId = "EB118A11-D526-4C4A-9BF6-2DF904995F6F";
paths = (
{
closed = 1;
nodes = (
"2350 -369 LINE",
"2350 -223 LINE",
"-1450 -223 LINE",
"-1450 -369 LINE"
);
}
);
width = 0;
}
);
note = uniABED.alt2;
},
{
glyphname = uniABED.alt3;
lastChange = "2016-11-10 14:25:40 +0000";
layers = (
{
layerId = "EB118A11-D526-4C4A-9BF6-2DF904995F6F";
paths = (
{
closed = 1;
nodes = (
"1450 -369 LINE",
"1450 -223 LINE",
"-1750 -223 LINE",
"-1750 -369 LINE"
);
}
);
width = 0;
}
);
note = uniABED.alt3;
},
{
glyphname = uniABED.alt4;
lastChange = "2016-11-10 14:25:40 +0000";
layers = (
{
layerId = "EB118A11-D526-4C4A-9BF6-2DF904995F6F";
paths = (
{
closed = 1;
nodes = (
"1750 -369 LINE",
"1750 -223 LINE",
"-1750 -223 LINE",
"-1750 -369 LINE"
);
}
);
width = 0;
}
);
note = uniABED.alt4;
},
{
glyphname = uniABED.alt5;
lastChange = "2016-11-10 14:25:40 +0000";
layers = (
{
layerId = "EB118A11-D526-4C4A-9BF6-2DF904995F6F";
paths = (
{
closed = 1;
nodes = (
"2350 -369 LINE",
"2350 -223 LINE",
"-1750 -223 LINE",
"-1750 -369 LINE"
);
}
);
width = 0;
}
);
note = uniABED.alt5;
},
{
glyphname = uniABED.alt6;
lastChange = "2016-11-10 14:25:40 +0000";
layers = (
{
layerId = "EB118A11-D526-4C4A-9BF6-2DF904995F6F";
paths = (
{
closed = 1;
nodes = (
"1450 -369 LINE",
"1450 -223 LINE",
"-2350 -223 LINE",
"-2350 -369 LINE"
);
}
);
width = 0;
}
);
note = uniABED.alt6;
},
{
glyphname = uniABED.alt7;
lastChange = "2016-11-10 14:25:40 +0000";
layers = (
{
layerId = "EB118A11-D526-4C4A-9BF6-2DF904995F6F";
paths = (
{
closed = 1;
nodes = (
"1750 -369 LINE",
"1750 -223 LINE",
"-2350 -223 LINE",
"-2350 -369 LINE"
);
}
);
width = 0;
}
);
note = uniABED.alt7;
},
{
glyphname = uniABED.alt8;
lastChange = "2016-11-10 14:25:40 +0000";
layers = (
{
layerId = "EB118A11-D526-4C4A-9BF6-2DF904995F6F";
paths = (
{
closed = 1;
nodes = (
"2350 -369 LINE",
"2350 -223 LINE",
"-2350 -223 LINE",
"-2350 -369 LINE"
);
}
);
width = 0;
}
);
note = uniABED.alt8;
},
